<?xml version="1.0" encoding="UTF-8"?>
<svg version="1.1" xmlns="http://www.w3.org/2000/svg" width="340" height="283">
<path d="M0 0 C1.17462799 0.00373123 1.17462799 0.00373123 2.37298584 0.00753784 C31.30044836 0.14892508 59.1139694 5.69233361 85.3125 18.3125 C86.41561523 18.84230469 86.41561523 18.84230469 87.54101562 19.3828125 C121.87839763 36.14451961 151.46617608 64.78228506 164.3125 101.3125 C171.76070465 125.21317198 173.85769472 152.12079122 166.3125 176.3125 C165.99104004 177.34818115 165.99104004 177.34818115 165.66308594 178.40478516 C153.62704457 215.78308828 125.03188887 244.67974443 90.75 262.6875 C77.2940348 269.55581954 63.99831216 274.29190415 49.375 278.0625 C48.24425049 278.35680908 47.11350098 278.65111816 45.94848633 278.9543457 C30.93873253 282.65927814 16.03551698 283.70406111 0.625 283.625 C-0.54962799 283.62126877 -0.54962799 283.62126877 -1.74798584 283.61746216 C-30.67544836 283.47607492 -58.4889694 277.93266639 -84.6875 265.3125 C-85.42291016 264.95929688 -86.15832031 264.60609375 -86.91601562 264.2421875 C-121.25339763 247.48048039 -150.84117608 218.84271494 -163.6875 182.3125 C-171.13570465 158.41182802 -173.23269472 131.50420878 -165.6875 107.3125 C-165.47319336 106.6220459 -165.25888672 105.9315918 -165.03808594 105.22021484 C-153.00204457 67.84191172 -124.40688887 38.94525557 -90.125 20.9375 C-76.6690348 14.06918046 -63.37331216 9.33309585 -48.75 5.5625 C-47.61925049 5.26819092 -46.48850098 4.97388184 -45.32348633 4.6706543 C-30.31373253 0.96572186 -15.41051698 -0.07906111 0 0 Z " fill="#FCFEFE" transform="translate(169.6875,-0.3125)"/>
<path d="M0 0 C1.17462799 0.00373123 1.17462799 0.00373123 2.37298584 0.00753784 C31.30044836 0.14892508 59.1139694 5.69233361 85.3125 18.3125 C86.41561523 18.84230469 86.41561523 18.84230469 87.54101562 19.3828125 C121.87839763 36.14451961 151.46617608 64.78228506 164.3125 101.3125 C171.76070465 125.21317198 173.85769472 152.12079122 166.3125 176.3125 C165.99104004 177.34818115 165.99104004 177.34818115 165.66308594 178.40478516 C153.62704457 215.78308828 125.03188887 244.67974443 90.75 262.6875 C77.2940348 269.55581954 63.99831216 274.29190415 49.375 278.0625 C48.24425049 278.35680908 47.11350098 278.65111816 45.94848633 278.9543457 C30.93873253 282.65927814 16.03551698 283.70406111 0.625 283.625 C-0.54962799 283.62126877 -0.54962799 283.62126877 -1.74798584 283.61746216 C-30.67544836 283.47607492 -58.4889694 277.93266639 -84.6875 265.3125 C-85.42291016 264.95929688 -86.15832031 264.60609375 -86.91601562 264.2421875 C-121.25339763 247.48048039 -150.84117608 218.84271494 -163.6875 182.3125 C-171.13570465 158.41182802 -173.23269472 131.50420878 -165.6875 107.3125 C-165.47319336 106.6220459 -165.25888672 105.9315918 -165.03808594 105.22021484 C-153.00204457 67.84191172 -124.40688887 38.94525557 -90.125 20.9375 C-76.6690348 14.06918046 -63.37331216 9.33309585 -48.75 5.5625 C-47.61925049 5.26819092 -46.48850098 4.97388184 -45.32348633 4.6706543 C-30.31373253 0.96572186 -15.41051698 -0.07906111 0 0 Z M-40.6875 22.3125 C-41.63753906 22.57562988 -42.58757812 22.83875977 -43.56640625 23.10986328 C-78.91852733 33.18521779 -111.28082971 53.99535688 -130 86.3125 C-144.83212326 113.15211044 -149.84041278 144.05254114 -141.41943359 173.96240234 C-130.52941435 208.92815458 -104.90488689 234.35517911 -73.14526367 251.36010742 C-58.98705826 258.69963353 -43.40722505 263.6855406 -27.6875 266.3125 C-26.51960938 266.50779297 -26.51960938 266.50779297 -25.328125 266.70703125 C-18.42112473 267.65233238 -11.73464648 267.3125 -4.6875 267.3125 C-4.6875 256.4225 -4.6875 245.5325 -4.6875 234.3125 C-9.6375 233.6525 -14.5875 232.9925 -19.6875 232.3125 C-45.95969139 226.78151234 -68.41167951 213.1714852 -83.375 190.625 C-91.31610781 178.15976375 -96.85233331 163.1244269 -97.6875 148.3125 C-97.75195312 147.17425781 -97.81640625 146.03601563 -97.8828125 144.86328125 C-98.61317202 120.00671231 -88.80087274 96.45929372 -71.83837891 78.43774414 C-53.79107453 59.91814462 -29.35544143 49.60682176 -3.59057617 48.96118164 C23.41108496 48.7360711 49.5118293 56.35740954 69.3125 75.3125 C69.6425 75.9725 69.9725 76.6325 70.3125 77.3125 C69.77753906 77.52648437 69.24257812 77.74046875 68.69140625 77.9609375 C64.81933859 80.16083144 61.81793213 83.40967332 58.64648438 86.5 C54.62722181 90.3125 54.62722181 90.3125 51.3125 90.3125 C49.359375 88.80859375 49.359375 88.80859375 47.0625 86.75 C30.89603115 73.41975376 10.66885939 70.1992616 -9.6875 71.3125 C-27.14224273 73.35160546 -43.30418729 84.49677007 -54.5234375 97.5 C-67.78471162 114.73486889 -71.58318659 132.8407152 -69.6875 154.3125 C-67.78262402 168.46300729 -60.92016258 179.73492201 -51.6875 190.3125 C-51.15640625 190.93898437 -50.6253125 191.56546875 -50.078125 192.2109375 C-41.15491938 201.97345454 -26.81168257 209.50029456 -13.6875 211.3125 C-10.7175 211.3125 -7.7475 211.3125 -4.6875 211.3125 C-4.6875 181.9425 -4.6875 152.5725 -4.6875 122.3125 C6.2025 122.3125 17.0925 122.3125 28.3125 122.3125 C36.2933717 122.20862269 44.2704405 122.1021196 52.24975586 121.94018555 C55.56942143 121.87360771 58.88917061 121.81453381 62.20898438 121.75585938 C72.93952981 121.55371082 83.61891798 121.28399363 94.3125 120.3125 C97.38191753 150.08332521 94.25203163 176.16729156 75.046875 200.140625 C58.74585341 218.72150975 39.85257488 227.469219 16.3125 233.3125 C16.3125 244.2025 16.3125 255.0925 16.3125 266.3125 C53.59682948 266.3125 88.81796396 249.05258527 115.3125 223.3125 C130.69735559 207.74480232 140.75011101 189.37627535 146.3125 168.3125 C146.49941406 167.66240967 146.68632812 167.01231934 146.87890625 166.3425293 C148.72417571 159.27962958 148.60729457 152.26045381 148.5625 145 C148.57023437 143.75798828 148.57796875 142.51597656 148.5859375 141.23632812 C148.56290364 130.25493538 147.25712857 119.96307771 143.6875 109.5625 C143.42807617 108.80227539 143.16865234 108.04205078 142.90136719 107.25878906 C130.96419863 73.46720379 105.03319948 47.40488601 72.9375 32 C54.34962006 23.42977289 33.82733656 18.27212144 13.3359375 18.07421875 C12.49660172 18.06433426 11.65726593 18.05444977 10.79249573 18.04426575 C-15.20935139 17.69285945 -15.20935139 17.69285945 -40.6875 22.3125 Z " fill="#097277" transform="translate(169.6875,-0.3125)"/>
<path d="M0 0 C1.40617584 0.00212242 1.40617584 0.00212242 2.84075928 0.00428772 C5.7844994 0.00980835 8.72815854 0.02234487 11.671875 0.03515625 C13.68880097 0.04018154 15.70572816 0.04474263 17.72265625 0.04882812 C22.62242622 0.05975157 27.52213696 0.07695941 32.421875 0.09765625 C32.43899938 1.5166401 32.45111846 2.93568483 32.46118164 4.35473633 C32.47212608 5.54006706 32.47212608 5.54006706 32.48329163 6.74934387 C32.0260153 24.23365922 22.5139678 39.28800649 10.421875 51.09765625 C9.77605469 51.76410156 9.13023437 52.43054688 8.46484375 53.1171875 C4.44747946 56.99451294 -0.09463631 59.7255205 -4.953125 62.41015625 C-5.85369629 62.91724121 -5.85369629 62.91724121 -6.77246094 63.43457031 C-12.21735922 66.30382531 -16.07602889 66.79723703 -22.578125 68.09765625 C-22.578125 45.98765625 -22.578125 23.87765625 -22.578125 1.09765625 C-14.94737194 0.46176016 -7.61164323 -0.04471228 0 0 Z " fill="#FCFEFD" transform="translate(208.578125,141.90234375)"/>
<path d="M0 0 C0 4.04314296 -2.06500212 5.94167153 -4.4375 9 C-22.56726531 33.49319288 -28.26633221 63.67618474 -24.38671875 93.62109375 C-19.29521146 124.8095922 0.03627142 151.55222762 25.32373047 169.81982422 C52.70018486 189.09418783 82.02191069 196.59148786 115 199 C115 188.11 115 177.22 115 166 C115.33 166 115.66 166 116 166 C116.21683204 170.6624585 116.41373087 175.32516691 116.59204102 179.98925781 C116.65554626 181.57640171 116.72453429 183.16333596 116.79907227 184.75 C116.90515652 187.02831947 116.99162167 189.3066609 117.07421875 191.5859375 C117.1302552 192.65320572 117.1302552 192.65320572 117.18742371 193.74203491 C117.2487793 195.74365234 117.2487793 195.74365234 117 199 C116.01 199.66 115.02 200.32 114 201 C113.27034634 203.56282742 113.27034634 203.56282742 113 206 C111.35 205.67 109.7 205.34 108 205 C108 203.68 108 202.36 108 201 C107.01 201.33 106.02 201.66 105 202 C102.8125 201.5625 102.8125 201.5625 101 201 C100.67 201.66 100.34 202.32 100 203 C99.236875 202.67 98.47375 202.34 97.6875 202 C95.00930865 200.82563314 95.00930865 200.82563314 92 201 C88.52725506 200.60685906 85.37590202 200.12796665 82.0625 199 C78.3465563 197.78663063 74.88493921 197.40189026 71 197 C71 196.34 71 195.68 71 195 C66.87026372 195.56739868 66.87026372 195.56739868 63 197 C62.67 196.34 62.34 195.68 62 195 C61.01 195 60.02 195 59 195 C59.33 193.68 59.66 192.36 60 191 C59.05125 190.95875 58.1025 190.9175 57.125 190.875 C51.70842594 190.12788634 47.52710452 186.86866029 43 184 C38.72371806 181.57119428 38.72371806 181.57119428 34 181 C34 180.34 34 179.68 34 179 C33.34 179 32.68 179 32 179 C31.67 179.99 31.34 180.98 31 182 C29.10134397 179.02819057 27.64544429 176.48539917 27 173 C26.34 173 25.68 173 25 173 C25 172.34 25 171.68 25 171 C24.0925 170.731875 23.185 170.46375 22.25 170.1875 C19.24254233 169.08862123 17.43186879 168.01258106 15 166 C14.01 165.34 13.02 164.68 12 164 C11.00127006 162.7393081 10.04566026 161.44378362 9.125 160.125 C6.73238255 156.82318792 4.25030441 154.4855269 1 152 C1 151.34 1 150.68 1 150 C-0.65 149.67 -2.3 149.34 -4 149 C-4.66 146.69 -5.32 144.38 -6 142 C-9.04913228 140.98888907 -9.04913228 140.98888907 -12 142 C-11.67 140.68 -11.34 139.36 -11 138 C-11.66 138 -12.32 138 -13 138 C-13 136.02 -13 134.04 -13 132 C-13.92039062 131.87818359 -13.92039062 131.87818359 -14.859375 131.75390625 C-17 131 -17 131 -18.265625 129.15234375 C-18.59046875 128.42144531 -18.9153125 127.69054687 -19.25 126.9375 C-19.58515625 126.20402344 -19.9203125 125.47054687 -20.265625 124.71484375 C-20.50796875 124.14894531 -20.7503125 123.58304687 -21 123 C-20.505 122.505 -20.505 122.505 -20 122 C-19.95936168 120.33382885 -19.957279 118.66611905 -20 117 C-20.66 117 -21.32 117 -22 117 C-22.2475 116.05125 -22.495 115.1025 -22.75 114.125 C-23.6857077 110.91306809 -23.6857077 110.91306809 -26.125 109.625 C-26.74375 109.41875 -27.3625 109.2125 -28 109 C-26.68 109 -25.36 109 -24 109 C-24.33 108.01 -24.66 107.02 -25 106 C-25.66 105.67 -26.32 105.34 -27 105 C-26.98839844 104.25234375 -26.97679687 103.5046875 -26.96484375 102.734375 C-26.95582031 101.74953125 -26.94679688 100.7646875 -26.9375 99.75 C-26.92589844 98.77546875 -26.91429687 97.8009375 -26.90234375 96.796875 C-26.88821392 94.14302859 -26.88821392 94.14302859 -27.48413086 92.22143555 C-28.69894966 86.99018317 -28.44179877 81.41035953 -28.625 76.0625 C-28.70234375 74.14920898 -28.70234375 74.14920898 -28.78125 72.19726562 C-28.82507813 70.96814453 -28.86890625 69.73902344 -28.9140625 68.47265625 C-28.9548291 67.35125244 -28.9955957 66.22984863 -29.03759766 65.07446289 C-29.00269421 62.22031309 -28.60872463 59.77600953 -28 57 C-28.020625 55.989375 -28.04125 54.97875 -28.0625 53.9375 C-27.99765978 50.89000954 -27.47026642 49.59458781 -26 47 C-25.855625 46.360625 -25.71125 45.72125 -25.5625 45.0625 C-25 43 -25 43 -23.5 40.625 C-21.83402659 37.70954653 -21.385152 35.31230719 -21 32 C-20.34 32 -19.68 32 -19 32 C-19 28.7 -19 25.4 -19 22 C-17.68 21.67 -16.36 21.34 -15 21 C-14.67 19.35 -14.34 17.7 -14 16 C-13.34 16 -12.68 16 -12 16 C-12.33 14.68 -12.66 13.36 -13 12 C-12.34 12 -11.68 12 -11 12 C-11 10.35 -11 8.7 -11 7 C-9.865625 6.731875 -8.73125 6.46375 -7.5625 6.1875 C-6.386875 5.795625 -5.21125 5.40375 -4 5 C-3.67 4.01 -3.34 3.02 -3 2 C-2.01 1.34 -1.02 0.68 0 0 Z " fill="#0C4855" transform="translate(51,68)"/>
<path d="M0 0 C0.68853717 2.14211564 1.11816922 3.55260961 0.53564453 5.75805664 C-0.14145515 8.59206136 -0.1297649 11.20737453 -0.1328125 14.12109375 C-0.13410156 15.30380859 -0.13539062 16.48652344 -0.13671875 17.70507812 C-0.13285156 18.93677734 -0.12898438 20.16847656 -0.125 21.4375 C-0.12886719 22.66533203 -0.13273437 23.89316406 -0.13671875 25.15820312 C-0.13542969 26.34220703 -0.13414063 27.52621094 -0.1328125 28.74609375 C-0.13168457 29.82560303 -0.13055664 30.9051123 -0.12939453 32.01733398 C-0.00870934 34.79924142 0.37756072 37.29225783 1 40 C1.15339844 40.825 1.30679688 41.65 1.46484375 42.5 C2.29629359 46.89775121 3.24594421 50.86543993 5 55 C5 55.99 5 56.98 5 58 C5.66 58.33 6.32 58.66 7 59 C7 59.99 7 60.98 7 62 C7.99 62.33 8.98 62.66 10 63 C10.33 64.98 10.66 66.96 11 69 C11.99 69.33 12.98 69.66 14 70 C15.0625 72.3125 15.0625 72.3125 16 75 C16.65213539 76.34050052 17.31379969 77.67661368 18 79 C20.97 78.505 20.97 78.505 24 78 C24 78.99 24 79.98 24 81 C24.66 81.33 25.32 81.66 26 82 C25.34 82 24.68 82 24 82 C23.67 83.32 23.34 84.64 23 86 C24.6396875 86.0928125 24.6396875 86.0928125 26.3125 86.1875 C30 87 30 87 31.8125 89.1875 C33.03769613 92.0892803 34.08850766 94.98506381 35 98 C37.16666667 97.16666667 37.16666667 97.16666667 38 95 C39.65 95.33 41.3 95.66 43 96 C43 98.31 43 100.62 43 103 C45.64 103.33 48.28 103.66 51 104 C51 104.66 51 105.32 51 106 C51.66 106 52.32 106 53 106 C53.33 105.34 53.66 104.68 54 104 C54.99 104 55.98 104 57 104 C59 107 59 107 59 110 C66.85867932 112.89530291 74.79122663 114.47505001 83 116 C83 116.33 83 116.66 83 117 C64.58574438 118.50320454 43.46149516 107.5754081 29.62402344 96.17089844 C11.45538648 80.46133983 -1.56054746 58.62923982 -3.8671875 34.359375 C-4.55704959 22.1041779 -3.51075602 11.78610949 0 0 Z " fill="#0D4E5A" transform="translate(75,116)"/>
<path d="M0 0 C0 4.04314296 -2.06500212 5.94167153 -4.4375 9 C-22.48827247 33.38647406 -28.67998226 64.09737897 -24.24609375 93.9375 C-22.87520634 101.60941295 -21.02446201 108.96720928 -17.8125 116.09375 C-16.71231999 118.67494155 -16.33023387 121.22603547 -16 124 C-15.68325425 125.33737094 -15.35729936 126.67288808 -15 128 C-15.99 128.33 -16.98 128.66 -18 129 C-18.99 127.02 -19.98 125.04 -21 123 C-20.505 122.505 -20.505 122.505 -20 122 C-19.95936168 120.33382885 -19.957279 118.66611905 -20 117 C-20.66 117 -21.32 117 -22 117 C-22.2475 116.05125 -22.495 115.1025 -22.75 114.125 C-23.6857077 110.91306809 -23.6857077 110.91306809 -26.125 109.625 C-26.74375 109.41875 -27.3625 109.2125 -28 109 C-26.68 109 -25.36 109 -24 109 C-24.33 108.01 -24.66 107.02 -25 106 C-25.66 105.67 -26.32 105.34 -27 105 C-26.98839844 104.25234375 -26.97679687 103.5046875 -26.96484375 102.734375 C-26.95582031 101.74953125 -26.94679688 100.7646875 -26.9375 99.75 C-26.92589844 98.77546875 -26.91429687 97.8009375 -26.90234375 96.796875 C-26.88821392 94.14302859 -26.88821392 94.14302859 -27.48413086 92.22143555 C-28.69894966 86.99018317 -28.44179877 81.41035953 -28.625 76.0625 C-28.70234375 74.14920898 -28.70234375 74.14920898 -28.78125 72.19726562 C-28.82507813 70.96814453 -28.86890625 69.73902344 -28.9140625 68.47265625 C-28.9548291 67.35125244 -28.9955957 66.22984863 -29.03759766 65.07446289 C-29.00269421 62.22031309 -28.60872463 59.77600953 -28 57 C-28.020625 55.989375 -28.04125 54.97875 -28.0625 53.9375 C-27.99765978 50.89000954 -27.47026642 49.59458781 -26 47 C-25.855625 46.360625 -25.71125 45.72125 -25.5625 45.0625 C-25 43 -25 43 -23.5 40.625 C-21.83402659 37.70954653 -21.385152 35.31230719 -21 32 C-20.34 32 -19.68 32 -19 32 C-19 28.7 -19 25.4 -19 22 C-17.68 21.67 -16.36 21.34 -15 21 C-14.67 19.35 -14.34 17.7 -14 16 C-13.34 16 -12.68 16 -12 16 C-12.33 14.68 -12.66 13.36 -13 12 C-12.34 12 -11.68 12 -11 12 C-11 10.35 -11 8.7 -11 7 C-9.865625 6.731875 -8.73125 6.46375 -7.5625 6.1875 C-6.386875 5.795625 -5.21125 5.40375 -4 5 C-3.67 4.01 -3.34 3.02 -3 2 C-2.01 1.34 -1.02 0.68 0 0 Z " fill="#1B4F5D" transform="translate(51,68)"/>
<path d="M0 0 C0.33 0 0.66 0 1 0 C1.06993164 0.56807373 1.13986328 1.13614746 1.21191406 1.72143555 C4.04233769 24.2305842 9.06589328 44.50867862 27.65478516 59.31835938 C39.88145801 68.33373976 53.17626308 72.47811945 68 75 C63.61670298 77.38656736 60.05900306 77.63834568 55.109375 76.60546875 C49.04298338 74.81102085 43.49666259 71.83710916 37.93579102 68.86914062 C33.3389378 66.46850478 29.07177519 65.10301874 24 64 C22.66560159 63.67095628 21.3319679 63.3387483 20 63 C21.485 62.505 21.485 62.505 23 62 C21.6036749 56.76488134 21.6036749 56.76488134 18 53 C14.89160979 52.2730774 14.89160979 52.2730774 12 52 C12 51.01 12 50.02 12 49 C11.01 48.67 10.02 48.34 9 48 C9.21527344 47.28199219 9.43054688 46.56398437 9.65234375 45.82421875 C10.08508575 42.30879781 9.27083008 40.87267935 7.5625 37.8125 C5 33.15531335 5 33.15531335 5 31 C4.34 31 3.68 31 3 31 C2.81824219 29.77023438 2.81824219 29.77023438 2.6328125 28.515625 C2.46523437 27.43796875 2.29765625 26.3603125 2.125 25.25 C1.96257812 24.18265625 1.80015625 23.1153125 1.6328125 22.015625 C1.16133827 19.08367199 1.16133827 19.08367199 -0.05859375 16.98828125 C-1.35755949 14.24482249 -1.22863939 11.95563529 -1.1875 8.9375 C-1.18105469 7.89464844 -1.17460938 6.85179687 -1.16796875 5.77734375 C-1 3 -1 3 0 0 Z " fill="#0E515C" transform="translate(98,137)"/>
<path d="M0 0 C2.375 0.3125 2.375 0.3125 5 1 C5.763125 1.185625 6.52625 1.37125 7.3125 1.5625 C8.1478125 1.7790625 8.1478125 1.7790625 9 2 C8.67 2.66 8.34 3.32 8 4 C10.97 4.495 10.97 4.495 14 5 C13.34 6.65 12.68 8.3 12 10 C12.99 9.67 13.98 9.34 15 9 C16.66666667 9 18.33333333 9 20 9 C21 12 21 12 21 14 C22.76957906 16.3283935 23.81583516 16.95288806 26.6875 17.6875 C27.450625 17.790625 28.21375 17.89375 29 18 C30.10844919 21.32534757 29.84454356 23.62182575 29 27 C28.34 26.67 27.68 26.34 27 26 C27 25.34 27 24.68 27 24 C26.01 24.33 25.02 24.66 24 25 C23.46826172 24.32517578 23.46826172 24.32517578 22.92578125 23.63671875 C19.12188656 19.04072976 14.98159376 15.09101841 10.4375 11.25 C9.89585205 10.79069092 9.3542041 10.33138184 8.79614258 9.8581543 C5.33997165 6.9807154 1.78163002 4.4338912 -2 2 C-1.34 1.34 -0.68 0.68 0 0 Z " fill="#179487" transform="translate(264,42)"/>
<path d="M0 0 C2.475 0.495 2.475 0.495 5 1 C5.33 3.64 5.66 6.28 6 9 C6.66 9 7.32 9 8 9 C8 9.66 8 10.32 8 11 C8.99 11.33 9.98 11.66 11 12 C11.99 12.33 12.98 12.66 14 13 C13.7525 13.804375 13.505 14.60875 13.25 15.4375 C12.9040044 20.36793735 14.76888143 23.69097273 17 28 C17.99 28 18.98 28 20 28 C20 30.31 20 32.62 20 35 C20.66 35.33 21.32 35.66 22 36 C22 39.96 22 43.92 22 48 C21.34 46.68 20.68 45.36 20 44 C19.34 43.34 18.68 42.68 18 42 C17.24198593 39.80822289 16.54354807 37.59570162 15.875 35.375 C14.01753569 29.51022843 11.75376642 24.00104118 9 18.5 C8.52022705 17.53199463 8.52022705 17.53199463 8.03076172 16.54443359 C6.33198755 13.23169547 4.49545065 10.25410016 2.25 7.28125 C0 4 0 4 0 0 Z " fill="#1D8277" transform="translate(296,73)"/>
<path d="M0 0 C0.81984375 0.08378906 1.6396875 0.16757813 2.484375 0.25390625 C3.56203125 0.35574219 4.6396875 0.45757812 5.75 0.5625 C6.81734375 0.66691406 7.8846875 0.77132812 8.984375 0.87890625 C11.84193313 1.13686426 11.84193313 1.13686426 13.91796875 0.51367188 C16.13774984 -0.03398519 18.04516774 -0.11396309 20.328125 -0.09765625 C21.52695313 -0.09282227 21.52695313 -0.09282227 22.75 -0.08789062 C23.575 -0.07951172 24.4 -0.07113281 25.25 -0.0625 C26.09046875 -0.05798828 26.9309375 -0.05347656 27.796875 -0.04882812 C29.86461401 -0.03707961 31.93231624 -0.01914522 34 0 C34 0.66 34 1.32 34 2 C39.83394389 3.10643764 42.76579213 3.27137992 48 0 C48 1.98 48 3.96 48 6 C43.52776514 8.35111775 40.65726127 7.87312695 35.8125 6.75 C34.58144531 6.47671875 33.35039062 6.2034375 32.08203125 5.921875 C29 5 29 5 27 3 C19.98300955 2.13086457 12.94314604 3.32818257 6.04296875 4.5625 C2.98418445 5.00227387 0.08555174 5.07379496 -3 5 C-2.67 4.34 -2.34 3.68 -2 3 C-1.34 3 -0.68 3 0 3 C0 2.01 0 1.02 0 0 Z " fill="#14817D" transform="translate(150,67)"/>
<path d="M0 0 C6.79928419 -0.0505894 13.5985201 -0.08568667 20.39794922 -0.10986328 C22.71242079 -0.11993892 25.02687959 -0.13359975 27.34130859 -0.15087891 C30.66246693 -0.17505865 33.9834574 -0.1864673 37.3046875 -0.1953125 C38.34430634 -0.20563507 39.38392517 -0.21595764 40.45504761 -0.22659302 C41.41589264 -0.22674408 42.37673767 -0.22689514 43.36669922 -0.22705078 C44.63910965 -0.23371262 44.63910965 -0.23371262 45.93722534 -0.24050903 C48 0 48 0 50 2 C25.32723497 2.69903999 0.68324114 3.16467317 -24 3 C-24 2.67 -24 2.34 -24 2 C-16.08 2 -8.16 2 0 2 C0 1.34 0 0.68 0 0 Z " fill="#14726D" transform="translate(198,121)"/>
<path d="M0 0 C0 4.07072254 -2.11320434 6.03973529 -4.5 9.125 C-9.09328744 15.2420025 -12.41353773 21.54364174 -15.3984375 28.57666016 C-16.19604237 30.41620058 -17.0907532 32.21300455 -18 34 C-19.485 34.495 -19.485 34.495 -21 35 C-21 34.01 -21 33.02 -21 32 C-20.34 32 -19.68 32 -19 32 C-19 28.7 -19 25.4 -19 22 C-17.68 21.67 -16.36 21.34 -15 21 C-14.67 19.35 -14.34 17.7 -14 16 C-13.34 16 -12.68 16 -12 16 C-12.33 14.68 -12.66 13.36 -13 12 C-12.34 12 -11.68 12 -11 12 C-11 10.35 -11 8.7 -11 7 C-9.865625 6.731875 -8.73125 6.46375 -7.5625 6.1875 C-6.386875 5.795625 -5.21125 5.40375 -4 5 C-3.67 4.01 -3.34 3.02 -3 2 C-2.01 1.34 -1.02 0.68 0 0 Z " fill="#0C5E67" transform="translate(51,68)"/>
<path d="M0 0 C1.20628008 2.33214148 2.1654738 4.49642139 3 7 C2.34 7.66 1.68 8.32 1 9 C1.33 9.66 1.66 10.32 2 11 C1.0625 13.625 1.0625 13.625 0 16 C0.66 16.33 1.32 16.66 2 17 C1.21625 17.391875 0.4325 17.78375 -0.375 18.1875 C-3.42775413 20.29535404 -4.07229799 21.45786507 -5 25 C-4.9175 25.825 -4.835 26.65 -4.75 27.5 C-5.05533876 30.55338757 -5.70595971 30.90973294 -8 32.8125 C-8.99 33.534375 -9.98 34.25625 -11 35 C-12.16139156 31.53442665 -12.01664789 31.03983448 -10.48828125 27.3828125 C-9.77126699 25.95935793 -9.04549953 24.54028939 -8.3125 23.125 C-4.55499271 15.56498042 -1.98236997 8.22944378 0 0 Z " fill="#127B74" transform="translate(315,168)"/>
<path d="M0 0 C2.5 1.375 2.5 1.375 5 3 C5 3.66 5 4.32 5 5 C4.34 5 3.68 5 3 5 C3 16.22 3 27.44 3 39 C4.98 39 6.96 39 9 39 C9 39.33 9 39.66 9 40 C6.69 40 4.38 40 2 40 C-1.66815369 32.66369262 -0.1134238 21.88552947 -0.0625 13.9375 C-0.05747314 12.58138187 -0.05291234 11.22526192 -0.04882812 9.86914062 C-0.03712079 6.57938006 -0.02072211 3.28971406 0 0 Z " fill="#05525B" transform="translate(183,228)"/>
<path d="M0 0 C1.391709 4.17512699 -0.06971143 7.25834254 -1.3125 11.3125 C-5.03213517 24.08503325 -6.29562588 36.765181 -7 50 C-7.33 50 -7.66 50 -8 50 C-8.19777236 46.6046836 -8.38139685 43.20874308 -8.5625 39.8125 C-8.61857422 38.85279297 -8.67464844 37.89308594 -8.73242188 36.90429688 C-8.78076172 35.97294922 -8.82910156 35.04160156 -8.87890625 34.08203125 C-8.9260376 33.22843018 -8.97316895 32.3748291 -9.02172852 31.49536133 C-8.99889091 28.8726296 -8.5431363 26.55982269 -8 24 C-8.020625 22.989375 -8.04125 21.97875 -8.0625 20.9375 C-7.99765978 17.89000954 -7.47026642 16.59458781 -6 14 C-5.79890625 13.11441406 -5.79890625 13.11441406 -5.59375 12.2109375 C-4.86904767 9.51237488 -3.71230606 7.23423744 -2.4375 4.75 C-1.75494141 3.41195312 -1.75494141 3.41195312 -1.05859375 2.046875 C-0.70925781 1.37140625 -0.35992187 0.6959375 0 0 Z " fill="#0E505B" transform="translate(31,101)"/>
<path d="M0 0 C-0.0721875 0.59167969 -0.144375 1.18335938 -0.21875 1.79296875 C-0.62090455 5.21686789 -1 8.54893308 -1 12 C-1 12.66 -1 13.32 -1 14 C-1.33 14.33 -1.66 14.66 -2 15 C-2.15831254 16.74730139 -2.27664255 18.49830059 -2.375 20.25 C-2.71786235 24.57231387 -3.23292438 27.51107856 -6 31 C-7.13254576 27.60236273 -6.5545449 26.31797284 -5.52050781 23.01513672 C-4.59102606 19.41666468 -4.52716615 15.76203963 -4.375 12.0625 C-4.33632812 11.28326172 -4.29765625 10.50402344 -4.2578125 9.70117188 C-4.16455873 7.80112621 -4.08124038 5.90059722 -4 4 C-8.95 4 -13.9 4 -19 4 C-13.09163125 -0.43127657 -7.11802329 -0.14829215 0 0 Z " fill="#1A807E" transform="translate(245,138)"/>
<path d="M0 0 C0.68751714 2.13894221 1.11941181 3.54960025 0.53564453 5.75146484 C-0.14780382 8.62045268 -0.1297816 11.27749996 -0.1328125 14.2265625 C-0.13410156 15.4228125 -0.13539062 16.6190625 -0.13671875 17.8515625 C-0.13285156 19.09679687 -0.12898438 20.34203125 -0.125 21.625 C-0.12886719 22.87796875 -0.13273437 24.1309375 -0.13671875 25.421875 C-0.13542969 26.61554688 -0.13414063 27.80921875 -0.1328125 29.0390625 C-0.13168457 30.13428223 -0.13055664 31.22950195 -0.12939453 32.35791016 C-0.17893598 34.97790032 -0.17893598 34.97790032 1 37 C0.34 37 -0.32 37 -1 37 C-1.33 37.99 -1.66 38.98 -2 40 C-2.33 40 -2.66 40 -3 40 C-5.34515313 25.92908123 -4.02739878 13.52055305 0 0 Z " fill="#18545E" transform="translate(75,116)"/>
<path d="M0 0 C3.96 0 7.92 0 12 0 C12 0.33 12 0.66 12 1 C8.7 1.33 5.4 1.66 2 2 C1.67 22.46 1.34 42.92 1 64 C3.97 64 6.94 64 10 64 C7 66 7 66 0 67 C0 44.89 0 22.78 0 0 Z " fill="#EBFFFF" transform="translate(186,143)"/>
<path d="M0 0 C0.66 0.33 1.32 0.66 2 1 C1.25 3.375 1.25 3.375 0 6 C-1.33333333 6.66666667 -2.66666667 7.33333333 -4 8 C-7.76098948 12.49229298 -8.21284346 15.2532267 -8 21 C-9 23.4375 -9 23.4375 -10 25 C-11.32 25 -12.64 25 -14 25 C-13.01 25.33 -12.02 25.66 -11 26 C-11.33 26.99 -11.66 27.98 -12 29 C-12.66 29 -13.32 29 -14 29 C-14.33 29.99 -14.66 30.98 -15 32 C-15.66 32 -16.32 32 -17 32 C-16.43199539 26.78247193 -14.72701719 22.79447048 -12.375 18.1875 C-11.84410767 17.13453735 -11.84410767 17.13453735 -11.30249023 16.06030273 C-8.25148611 10.16976369 -4.71499025 4.71499025 0 0 Z " fill="#0E5B60" transform="translate(93,83)"/>
<path d="M0 0 C0.33 0.66 0.66 1.32 1 2 C2.98 1.67 4.96 1.34 7 1 C7 1.99 7 2.98 7 4 C7.66 4.33 8.32 4.66 9 5 C8.34 5 7.68 5 7 5 C6.67 6.32 6.34 7.64 6 9 C7.093125 9.061875 8.18625 9.12375 9.3125 9.1875 C13 10 13 10 14.9375 12.4375 C16 15 16 15 16 17 C11.71716268 16.50008693 9.818457 15.29833005 6.875 12.1875 C6.21242188 11.50042969 5.54984375 10.81335938 4.8671875 10.10546875 C0 4.61715481 0 4.61715481 0 0 Z " fill="#065766" transform="translate(92,193)"/>
<path d="M0 0 C0.33 0.99 0.66 1.98 1 3 C0.071875 3.268125 -0.85625 3.53625 -1.8125 3.8125 C-4.93043603 4.72255615 -4.93043603 4.72255615 -6.5 6.5 C-8.66475544 8.66475544 -11.10574036 9.16388055 -14 10 C-14 10.66 -14 11.32 -14 12 C-17.83910692 16.31899529 -22.32873203 19.62695042 -27 23 C-27.66 22.67 -28.32 22.34 -29 22 C-20.48443477 12.79242496 -11.39013102 5.4392991 0 0 Z " fill="#136464" transform="translate(123,59)"/>
<path d="M0 0 C-3.18402328 3.39889602 -6.54327589 5.59100131 -11 7 C-14.09354244 7.03831012 -16.97862566 6.64344083 -20 6 C-17.19260541 1.59749486 -14.46613688 0.79190097 -9.5859375 -0.5390625 C-6.05761535 -1.16797793 -3.46760931 -0.82921092 0 0 Z " fill="#137B78" transform="translate(153,51)"/>
<path d="M0 0 C1.77131561 0.30975468 3.54203778 0.62290425 5.3125 0.9375 C6.79169922 1.19853516 6.79169922 1.19853516 8.30078125 1.46484375 C11 2 11 2 14 3 C14 14.55 14 26.1 14 38 C13.67 38 13.34 38 13 38 C13 27.11 13 16.22 13 5 C9.7 5 6.4 5 3 5 C2.01 4.01 1.02 3.02 0 2 C0 1.34 0 0.68 0 0 Z " fill="#26636A" transform="translate(152,229)"/>
<path d="M0 0 C4.62 2.31 9.24 4.62 14 7 C14 7.99 14 8.98 14 10 C13.01 10.495 13.01 10.495 12 11 C11.01 12.485 11.01 12.485 10 14 C9.67 12.35 9.34 10.7 9 9 C7.68 9 6.36 9 5 9 C3.65835921 8.7018576 2.32148827 8.37756808 1 8 C0.67 5.36 0.34 2.72 0 0 Z " fill="#16827A" transform="translate(213,57)"/>
<path d="M0 0 C2.43329165 0.0184508 4.86620568 0.02050791 7.29956055 0.02026367 C8.84708989 0.02517291 10.39461667 0.03099861 11.94213867 0.0378418 C13.03267799 0.03951103 13.03267799 0.03951103 14.14524841 0.04121399 C19.24500253 0.08966435 19.24500253 0.08966435 21.47729492 1.20581055 C21.47729492 1.86581055 21.47729492 2.52581055 21.47729492 3.20581055 C20.9384668 3.13362305 20.39963867 3.06143555 19.84448242 2.98706055 C4.43595771 1.24816748 -11.25198187 1.54175915 -26.52270508 4.20581055 C-20.38314863 -1.93374591 -8.12777639 -0.06398515 0 0 Z " fill="#DDF8F7" transform="translate(169.522705078125,46.794189453125)"/>
<path d="M0 0 C0.99 0.33 1.98 0.66 3 1 C2.67 1.99 2.34 2.98 2 4 C1.34 4 0.68 4 0 4 C-0.66 4.66 -1.32 5.32 -2 6 C-2 6.99 -2 7.98 -2 9 C-2.3062434 10.33981486 -2.63451555 11.67511887 -3 13 C-5.31 13.33 -7.62 13.66 -10 14 C-10.28875 14.804375 -10.5775 15.60875 -10.875 16.4375 C-12 19 -12 19 -14 20 C-13.33333333 18.33333333 -12.66666667 16.66666667 -12 15 C-11.5359375 13.6696875 -11.5359375 13.6696875 -11.0625 12.3125 C-10 10 -10 10 -7 8 C-5.73842151 6.65467647 -4.51089722 5.27689864 -3.3125 3.875 C-2.68988281 3.15054688 -2.06726563 2.42609375 -1.42578125 1.6796875 C-0.95527344 1.12539062 -0.48476563 0.57109375 0 0 Z " fill="#0D8380" transform="translate(296,212)"/>
<path d="M0 0 C1.98 0 3.96 0 6 0 C6 10.89 6 21.78 6 33 C1.38 33 -3.24 33 -8 33 C-8 32.67 -8 32.34 -8 32 C-4.37 31.67 -0.74 31.34 3 31 C3.98831156 24.46313616 4.11883529 18.10422885 4.0625 11.5 C4.05798828 10.48679688 4.05347656 9.47359375 4.04882812 8.4296875 C4.03714593 5.95306173 4.02076582 3.47656343 4 1 C2.68 0.67 1.36 0.34 0 0 Z " fill="#E9FEFE" transform="translate(159,234)"/>
<path d="M0 0 C0.33 0.66 0.66 1.32 1 2 C0.15478464 4.13387116 -0.77852061 6.23307149 -1.75 8.3125 C-4.79607522 15.03712066 -6.62422098 21.7349213 -8 29 C-8.33 29 -8.66 29 -9 29 C-9.125 22.25 -9.125 22.25 -8 20 C-8.66 20 -9.32 20 -10 20 C-10 18.68 -10 17.36 -10 16 C-9.01 16 -8.02 16 -7 16 C-6.67 12.7 -6.34 9.4 -6 6 C-5.01 5.67 -4.02 5.34 -3 5 C-3 4.01 -3 3.02 -3 2 C-2.01 1.34 -1.02 0.68 0 0 Z " fill="#0D595F" transform="translate(108,106)"/>
<path d="M0 0 C0.61488281 0.144375 1.22976562 0.28875 1.86328125 0.4375 C3.07564453 0.7159375 3.07564453 0.7159375 4.3125 1 C5.11300781 1.185625 5.91351563 1.37125 6.73828125 1.5625 C9.10695938 2.09495823 9.10695938 2.09495823 12 2 C12.33 2.99 12.66 3.98 13 5 C15.50447516 6.21869929 15.50447516 6.21869929 18 7 C18 7.66 18 8.32 18 9 C18.99 9 19.98 9 21 9 C20.67 9.99 20.34 10.98 20 12 C17.06046881 10.71292093 14.12374889 9.41954756 11.1875 8.125 C10.35412109 7.76019531 9.52074219 7.39539063 8.66210938 7.01953125 C7.85966797 6.66503906 7.05722656 6.31054688 6.23046875 5.9453125 C5.49207764 5.62062988 4.75368652 5.29594727 3.99291992 4.96142578 C2 4 2 4 -1 2 C-0.67 1.34 -0.34 0.68 0 0 Z " fill="#1A8679" transform="translate(229,24)"/>
<path d="M0 0 C0.33 0 0.66 0 1 0 C0.69915047 7.20534617 -0.80682777 12.5800432 -4 19 C-4.71444148 20.62232379 -5.4229044 22.24729521 -6.125 23.875 C-7.26709167 26.50841799 -8.38889978 28.58334967 -10 31 C-10.99 31 -11.98 31 -13 31 C-11.83847351 28.64819636 -10.64135135 26.32245439 -9.4140625 24.00390625 C-5.32508282 16.13842349 -2.29888435 8.59582844 0 0 Z " fill="#186C6B" transform="translate(240,154)"/>
<path d="M0 0 C3.81684226 1.55500981 6.19195732 4.03595495 9 7 C8.34 7.66 7.68 8.32 7 9 C6.30251417 10.31747324 5.63040043 11.64914193 5 13 C3.68 13 2.36 13 1 13 C1.01160156 12.39671875 1.02320313 11.7934375 1.03515625 11.171875 C1.04417969 10.37265625 1.05320313 9.5734375 1.0625 8.75 C1.07410156 7.96109375 1.08570313 7.1721875 1.09765625 6.359375 C1.00385306 4.09308998 0.63241063 2.1711105 0 0 Z " fill="#108E87" transform="translate(229,69)"/>
<path d="M0 0 C-21.56550474 11.26436414 -21.56550474 11.26436414 -31 11 C-31.33 10.01 -31.66 9.02 -32 8 C-31.01 8 -30.02 8 -29 8 C-22.26966208 7.51926158 -16.13671527 5.85804841 -10 3 C-9.67 2.34 -9.34 1.68 -9 1 C-2.49462366 -1.24731183 -2.49462366 -1.24731183 0 0 Z " fill="#13585F" transform="translate(221,221)"/>
<path d="M0 0 C5.94 0.99 5.94 0.99 12 2 C12.33 1.34 12.66 0.68 13 0 C14.32 0.33 15.64 0.66 17 1 C17 2.32 17 3.64 17 5 C15 6 15 6 12.86328125 5.44140625 C12.02152344 5.15136719 11.17976562 4.86132812 10.3125 4.5625 C5.96696078 3.17495482 2.53320684 2.70435608 -2 3 C-1.34 2.67 -0.68 2.34 0 2 C0 1.34 0 0.68 0 0 Z " fill="#179589" transform="translate(212,19)"/>
<path d="M0 0 C-8.3194356 4.66987187 -18.73263096 4.2957671 -28 4 C-28 3.67 -28 3.34 -28 3 C-24.7 3 -21.4 3 -18 3 C-17.67 2.01 -17.34 1.02 -17 0 C-11.0885256 -0.77313045 -5.8685408 -1.14819277 0 0 Z " fill="#EDFCFB" transform="translate(214,262)"/>
<path d="M0 0 C3.31460676 1.40510504 5.0351443 3.00092347 7.25 5.8125 C10.24247536 9.37772871 13.1856952 11.54472212 17.19921875 13.8359375 C19.71814281 15.46422247 21.31783571 17.54684374 23 20 C13.84604957 18.63118498 5.40722746 7.94108281 0 1 C0 0.67 0 0.34 0 0 Z " fill="#11444F" transform="translate(91,197)"/>
<path d="M0 0 C3.7973907 0.35161025 7.29867576 1.07466894 11 2 C7.535 4.97 7.535 4.97 4 8 C-0.875 5.375 -0.875 5.375 -2 2 C-1.34 1.34 -0.68 0.68 0 0 Z " fill="#128985" transform="translate(218,82)"/>
<path d="M0 0 C1.52265216 0.26041335 3.04305684 0.53397316 4.5625 0.8125 C5.83287109 1.03873047 5.83287109 1.03873047 7.12890625 1.26953125 C10 2 10 2 13.34375 3.46875 C17.21884755 5.0916541 20.82733278 5.94936398 24.9375 6.6875 C25.96327148 6.88182617 25.96327148 6.88182617 27.00976562 7.08007812 C28.67183798 7.39389598 30.33574127 7.69799166 32 8 C32 8.33 32 8.66 32 9 C20.96877713 9.90050799 9.77341501 5.8009758 0 1 C0 0.67 0 0.34 0 0 Z " fill="#12454F" transform="translate(126,224)"/>
<path d="M0 0 C1.26682579 3.66665775 0.76229513 6.52801454 0.125 10.3125 C-1.05093364 17.86866817 -1.59364037 25.36471634 -2 33 C-2.33 33 -2.66 33 -3 33 C-5.01944214 10.40510967 -5.01944214 10.40510967 0 0 Z " fill="#073E4B" transform="translate(26,118)"/>
<path d="M0 0 C0.66 0 1.32 0 2 0 C0.93235269 3.02500071 -0.25894376 5.38449224 -2.0625 8.0625 C-3.70988017 10.5601409 -4.55455115 12.10458245 -5 15 C-5.99 15 -6.98 15 -8 15 C-7.92911546 11.92618868 -7.74605786 8.98956042 -7 6 C-4.5625 4.125 -4.5625 4.125 -2 3 C-1.34 2.01 -0.68 1.02 0 0 Z " fill="#0E7D7B" transform="translate(253,182)"/>
<path d="M0 0 C1 2 1 2 0.43359375 3.76953125 C-2.03798555 8.83869194 -4.52574579 11.59567614 -9 15 C-9.99 16.485 -9.99 16.485 -11 18 C-10.67 18.66 -10.34 19.32 -10 20 C-11.65 20 -13.3 20 -15 20 C-10 13.33333333 -5 6.66666667 0 0 Z " fill="#16716B" transform="translate(301,202)"/>
<path d="M0 0 C0.33 0.99 0.66 1.98 1 3 C-0.423125 3.2165625 -0.423125 3.2165625 -1.875 3.4375 C-4.8934494 3.82935399 -4.8934494 3.82935399 -7 5 C-7.33 4.34 -7.66 3.68 -8 3 C-8.99 3 -9.98 3 -11 3 C-10.6875 1.0625 -10.6875 1.0625 -10 -1 C-6.01178789 -2.32940404 -3.88269755 -1.43803613 0 0 Z " fill="#0C5160" transform="translate(121,260)"/>
<path d="M0 0 C0.66 0.33 1.32 0.66 2 1 C1.00795408 2.33926199 0.00573778 3.67098936 -1 5 C-1.928125 6.299375 -1.928125 6.299375 -2.875 7.625 C-5.19061383 10.21303899 -6.79020498 10.84776589 -10 12 C-11.77277259 13.52007842 -11.77277259 13.52007842 -13 15 C-13.66 14.67 -14.32 14.34 -15 14 C-10.18045285 9.08406191 -5.39294334 4.28669855 0 0 Z " fill="#E2FBFB" transform="translate(238,77)"/>
<path d="M0 0 C1.38277746 3.84104849 0.84362303 7.06309254 0 11 C-1.375 13.1875 -1.375 13.1875 -3 15 C-3.7734375 16.11375 -3.7734375 16.11375 -4.5625 17.25 C-5.2740625 18.11625 -5.2740625 18.11625 -6 19 C-6.66 19 -7.32 19 -8 19 C-6.21127475 14.42419121 -4.17969187 9.98271532 -2.12109375 5.5234375 C-0.93154689 2.95494272 -0.93154689 2.95494272 0 0 Z " fill="#E6FAFA" transform="translate(261,171)"/>
<path d="M0 0 C0.99 0 1.98 0 3 0 C4.20287276 6.49551291 3.58444052 11.60985973 2 18 C0 16 0 16 -0.1953125 12.3046875 C-0.182009 10.82799892 -0.15814835 9.35137642 -0.125 7.875 C-0.11146484 6.74384766 -0.11146484 6.74384766 -0.09765625 5.58984375 C-0.0740687 3.72642746 -0.03819719 1.86317407 0 0 Z " fill="#2D948E" transform="translate(318,138)"/>
<path d="M0 0 C10.15317287 -0.63019694 10.15317287 -0.63019694 13.6875 2 C14.120625 2.66 14.55375 3.32 15 4 C13.906875 3.979375 12.81375 3.95875 11.6875 3.9375 C8.05615809 3.81455548 8.05615809 3.81455548 5 5 C2.875 4.25 2.875 4.25 1 3 C0.67 2.01 0.34 1.02 0 0 Z " fill="#118A82" transform="translate(190,52)"/>
<path d="M0 0 C0.33 0.66 0.66 1.32 1 2 C0.360625 2.28875 -0.27875 2.5775 -0.9375 2.875 C-3.15206079 3.82823451 -3.15206079 3.82823451 -4 6 C-5.32 6 -6.64 6 -8 6 C-8.33 6.66 -8.66 7.32 -9 8 C-11.50390625 8.8515625 -11.50390625 8.8515625 -14.5625 9.625 C-15.57441406 9.88539063 -16.58632812 10.14578125 -17.62890625 10.4140625 C-18.41136719 10.60742188 -19.19382813 10.80078125 -20 11 C-17.8514156 8.63979033 -15.88256635 7.28448532 -12.98828125 5.95703125 C-12.23095703 5.60576172 -11.47363281 5.25449219 -10.69335938 4.89257812 C-9.90767578 4.53615234 -9.12199219 4.17972656 -8.3125 3.8125 C-7.51521484 3.44447266 -6.71792969 3.07644531 -5.89648438 2.69726562 C-3.93370231 1.7922703 -1.96720361 0.89534348 0 0 Z " fill="#156163" transform="translate(252,247)"/>
<path d="M0 0 C0.99088067 3.08273985 0.92482533 4.91724891 0 8 C0 8.66 0 9.32 0 10 C-1.95927063 11.7143618 -3.95880212 13.38405168 -6 15 C-6.625 13.1875 -6.625 13.1875 -7 11 C-5.88095116 9.32142674 -4.73499451 7.65770125 -3.5 6.0625 C-2.07737816 4.10639497 -1.01633523 2.18902973 0 0 Z " fill="#148680" transform="translate(310,188)"/>
<path d="M0 0 C-3.30830218 2.20553479 -6.19304149 3.12377477 -10 4.25 C-11.85625 4.81460937 -11.85625 4.81460937 -13.75 5.390625 C-17 6 -17 6 -20 4 C-19.01 3.34 -18.02 2.68 -17 2 C-16.01 2.33 -15.02 2.66 -14 3 C-13.34 2.34 -12.68 1.68 -12 1 C-7.96964009 0.23955473 -4.09797785 -0.12418115 0 0 Z " fill="#197771" transform="translate(129,22)"/>
<path d="M0 0 C4.61766625 2.92827616 9.18584346 6.05042961 13 10 C13 10.66 13 11.32 13 12 C11.35 12.66 9.7 13.32 8 14 C8 13.01 8 12.02 8 11 C8.66 10.67 9.32 10.34 10 10 C9.38125 9.731875 8.7625 9.46375 8.125 9.1875 C6 8 6 8 4 5 C1.94996045 3.80767387 1.94996045 3.80767387 0 3 C0 2.01 0 1.02 0 0 Z " fill="#197972" transform="translate(227,65)"/>
<path d="M0 0 C2.59701146 2.59701146 3.95533983 5.62091488 5.5625 8.875 C5.87896484 9.50019531 6.19542969 10.12539062 6.52148438 10.76953125 C8.02935397 13.79807613 9.38704569 16.65813949 10 20 C8.68 19.67 7.36 19.34 6 19 C5.88785156 18.29101562 5.77570313 17.58203125 5.66015625 16.8515625 C4.71747772 12.77963748 2.87114163 9.27176597 1.05859375 5.5234375 C0 3 0 3 0 0 Z " fill="#114850" transform="translate(102,164)"/>
<path d="M0 0 C2.54194161 0.14188985 5.08347993 0.28839155 7.625 0.4375 C8.69427734 0.49647461 8.69427734 0.49647461 9.78515625 0.55664062 C13.91803682 0.80309681 17.92269024 1.23470053 22 2 C22 2.33 22 2.66 22 3 C19.4580411 3.05434116 16.91726318 3.0938339 14.375 3.125 C13.66214844 3.14175781 12.94929687 3.15851562 12.21484375 3.17578125 C7.7387836 3.21684602 4.22050722 2.69086567 0 1 C0 0.67 0 0.34 0 0 Z " fill="#DCF9F8" transform="translate(184,18)"/>
<path d="M0 0 C2.97 0.495 2.97 0.495 6 1 C6 3.31 6 5.62 6 8 C4.35 7.67 2.7 7.34 1 7 C1 6.34 1 5.68 1 5 C0.34 4.34 -0.32 3.68 -1 3 C-0.67 2.01 -0.34 1.02 0 0 Z " fill="#0B5867" transform="translate(112,211)"/>
<path d="M0 0 C0.66 0.33 1.32 0.66 2 1 C1.38125 1.2475 0.7625 1.495 0.125 1.75 C-2.15543159 2.81738099 -2.15543159 2.81738099 -2.9375 5.0625 C-3.288125 5.701875 -3.63875 6.34125 -4 7 C-6.5625 7.625 -6.5625 7.625 -9 8 C-9.33 8.66 -9.66 9.32 -10 10 C-10.66 10 -11.32 10 -12 10 C-10.69522778 6.08568335 -9.01326694 5.42187412 -5.5625 3.25 C-4.57378906 2.61578125 -3.58507812 1.9815625 -2.56640625 1.328125 C-1.29603516 0.67070312 -1.29603516 0.67070312 0 0 Z " fill="#116765" transform="translate(266,238)"/>
<path d="M0 0 C-3.82959933 2.61109045 -6.8261539 1.86230768 -11.25 1.125 C-12.51328125 0.92132812 -13.7765625 0.71765625 -15.078125 0.5078125 C-16.04234375 0.34023438 -17.0065625 0.17265625 -18 0 C-11.77371612 -3.3526144 -6.51281789 -1.79663942 0 0 Z " fill="#21867D" transform="translate(210,19)"/>
<path d="M0 0 C0.33 0.66 0.66 1.32 1 2 C-0.12047806 5.36143418 -1.49707183 6.57528834 -4 9 C-4.33 9.66 -4.66 10.32 -5 11 C-5.66 11 -6.32 11 -7 11 C-7.28875 11.639375 -7.5775 12.27875 -7.875 12.9375 C-9 15 -9 15 -11 16 C-9.55049595 11.64352355 -7.32252888 8.68242711 -4.375 5.1875 C-3.55773438 4.21167969 -2.74046875 3.23585938 -1.8984375 2.23046875 C-1.27195312 1.49441406 -0.64546875 0.75835937 0 0 Z " fill="#DEF2F4" transform="translate(55,65)"/>
<path d="M0 0 C0.99 0 1.98 0 3 0 C3.144375 0.9075 3.28875 1.815 3.4375 2.75 C3.86409473 5.21476956 4.35074221 7.58847107 5 10 C4.01 10.33 3.02 10.66 2 11 C-1.07692308 5.70769231 -1.07692308 5.70769231 -0.6875 2.125 C-0.460625 1.42375 -0.23375 0.7225 0 0 Z " fill="#0E5465" transform="translate(31,186)"/>
<path d="M0 0 C0.66 0.66 1.32 1.32 2 2 C1.01 2.495 1.01 2.495 0 3 C-0.65555119 5.52733235 -0.65555119 5.52733235 -1 8 C-2.98 8.33 -4.96 8.66 -7 9 C-6.21448343 7.68381002 -5.4213763 6.37214772 -4.625 5.0625 C-4.18414062 4.33160156 -3.74328125 3.60070312 -3.2890625 2.84765625 C-2 1 -2 1 0 0 Z " fill="#09686F" transform="translate(91,89)"/>
<path d="M0 0 C2 1 2 1 2 1 Z M-2 1 C-1.34 1.33 -0.68 1.66 0 2 C-2.35486096 5.53229144 -4.19784805 6.2510101 -8 8 C-8.78375 8.391875 -9.5675 8.78375 -10.375 9.1875 C-10.91125 9.455625 -11.4475 9.72375 -12 10 C-11.67 8.35 -11.34 6.7 -11 5 C-10.2575 4.896875 -9.515 4.79375 -8.75 4.6875 C-5.82985982 3.95746496 -4.26812446 2.93210602 -2 1 Z " fill="#107E7C" transform="translate(278,232)"/>
<path d="M0 0 C1.79341438 4.16673521 0.01173384 7.74663341 -1.4375 11.75 C-1.68048828 12.44738281 -1.92347656 13.14476562 -2.17382812 13.86328125 C-2.77310248 15.57885098 -3.38529885 17.28989715 -4 19 C-4.33 19 -4.66 19 -5 19 C-4.5464821 11.97047248 -2.87940913 6.4150557 0 0 Z " fill="#E0FAFA" transform="translate(239,153)"/>
<path d="M0 0 C1.08667969 0.20367187 2.17335937 0.40734375 3.29296875 0.6171875 C4.54013672 0.86855469 4.54013672 0.86855469 5.8125 1.125 C1.97925992 3.24336952 -0.78727384 3.43930187 -5.1875 3.125 C-7.625 2.125 -7.625 2.125 -9.1875 1.125 C-5.43214902 -1.37856732 -4.31860586 -0.8358592 0 0 Z " fill="#0A545C" transform="translate(160.1875,210.875)"/>
<path d="M0 0 C0.99 0.33 1.98 0.66 3 1 C3 1.66 3 2.32 3 3 C4.32 3.66 5.64 4.32 7 5 C7 5.33 7 5.66 7 6 C3.7 6 0.4 6 -3 6 C-2.67 5.34 -2.34 4.68 -2 4 C-1.34 4 -0.68 4 0 4 C-0.33 3.01 -0.66 2.02 -1 1 C-0.67 0.67 -0.34 0.34 0 0 Z " fill="#095B69" transform="translate(121,195)"/>
<path d="M0 0 C0.66 0 1.32 0 2 0 C2 0.66 2 1.32 2 2 C2.99 2.33 3.98 2.66 5 3 C5.99 3.33 6.98 3.66 8 4 C7.42655063 6.86724686 7.1385485 7.8614515 5 10 C3.35 6.7 1.7 3.4 0 0 Z " fill="#13958C" transform="translate(302,82)"/>
<path d="M0 0 C1.17487036 0.75827092 2.33972592 1.53207755 3.5 2.3125 C4.47453125 2.95638672 4.47453125 2.95638672 5.46875 3.61328125 C5.9740625 4.07089844 6.479375 4.52851562 7 5 C7 5.99 7 6.98 7 8 C4.50907189 9.24546405 3.58919267 8.7767578 1 8 C0.67 5.36 0.34 2.72 0 0 Z " fill="#128B84" transform="translate(213,57)"/>
<path d="M0 0 C6.63093294 0.34773428 12.053928 0.96089654 18 4 C18 4.66 18 5.32 18 6 C17.05640625 5.70996094 17.05640625 5.70996094 16.09375 5.4140625 C10.75783615 3.7907875 5.42240732 2.30539435 0 1 C0 0.67 0 0.34 0 0 Z " fill="#DAF8F8" transform="translate(193,50)"/>
<path d="M0 0 C0.99 0.33 1.98 0.66 3 1 C1.68 6.61 0.36 12.22 -1 18 C-1.33 18 -1.66 18 -2 18 C-2.36461348 6.61595701 -2.36461348 6.61595701 0 1 C0 0.67 0 0.34 0 0 Z " fill="#E3F7F8" transform="translate(73,114)"/>
<path d="M0 0 C4.5329895 1.34764553 5.76878342 2.9256045 8 7 C9.29579647 8.36984198 10.61992749 9.7151049 12 11 C9 11 9 11 6.73828125 9.1015625 C5.93777344 8.28429688 5.13726562 7.46703125 4.3125 6.625 C3.50425781 5.81289063 2.69601562 5.00078125 1.86328125 4.1640625 C0 2 0 2 0 0 Z " fill="#187F74" transform="translate(277,53)"/>
<path d="M0 0 C0 3 0 3 -1.86328125 5.0078125 C-2.67152344 5.70648438 -3.47976563 6.40515625 -4.3125 7.125 C-5.51326172 8.18074219 -5.51326172 8.18074219 -6.73828125 9.2578125 C-9 11 -9 11 -12 12 C-10.47940093 8.11985064 -8.13921469 6.26093438 -4.875 3.75 C-3.96492188 3.04359375 -3.05484375 2.3371875 -2.1171875 1.609375 C-1.41851562 1.07828125 -0.71984375 0.5471875 0 0 Z " fill="#186865" transform="translate(281,226)"/>
<path d="M0 0 C0.33 0.66 0.66 1.32 1 2 C-1.1727369 6.58358196 -4.21300384 10.63378119 -8 14 C-8.66 13.67 -9.32 13.34 -10 13 C-9.16855469 11.96939453 -9.16855469 11.96939453 -8.3203125 10.91796875 C-7.59585938 10.01691406 -6.87140625 9.11585938 -6.125 8.1875 C-5.40570313 7.29417969 -4.68640625 6.40085938 -3.9453125 5.48046875 C-1.92059294 2.96429047 -1.92059294 2.96429047 0 0 Z " fill="#E0F9F9" transform="translate(252,190)"/>
<path d="M0 0 C3.33727786 1.17255709 5.77437487 2.18868404 8 5 C8 5.66 8 6.32 8 7 C9.32 7.66 10.64 8.32 12 9 C11.34 9.66 10.68 10.32 10 11 C8.33035479 9.35718838 6.6643536 7.71067239 5 6.0625 C4.071875 5.14597656 3.14375 4.22945312 2.1875 3.28515625 C0 1 0 1 0 0 Z " fill="#E2F7F8" transform="translate(115,186)"/>
<path d="M0 0 C0.99 0 1.98 0 3 0 C3.33 1.32 3.66 2.64 4 4 C2.68 4.99 1.36 5.98 0 7 C-0.66 5.68 -1.32 4.36 -2 3 C-1.34 2.01 -0.68 1.02 0 0 Z " fill="#045E67" transform="translate(104,176)"/>
<path d="M0 0 C0.33 0 0.66 0 1 0 C1.33 5.94 1.66 11.88 2 18 C1.01 17.67 0.02 17.34 -1 17 C-1.02699725 14.72923158 -1.04639453 12.45837179 -1.0625 10.1875 C-1.07990234 8.29064453 -1.07990234 8.29064453 -1.09765625 6.35546875 C-1 3 -1 3 0 0 Z " fill="#145060" transform="translate(25,156)"/>
<path d="M0 0 C-1.55500981 3.81684226 -4.03595495 6.19195732 -7 9 C-7.99 8.67 -8.98 8.34 -10 8 C-8.71451591 6.66070495 -7.42141845 5.32871357 -6.125 4 C-5.04605469 2.88625 -5.04605469 2.88625 -3.9453125 1.75 C-2 0 -2 0 0 0 Z " fill="#E3F6F9" transform="translate(66,56)"/>
<path d="M0 0 C4 0 8 0 12 0 C12.66 0.66 13.32 1.32 14 2 C13.67 2.66 13.34 3.32 13 4 C11.39431334 3.71682074 9.79047953 3.42312209 8.1875 3.125 C7.29417969 2.96257812 6.40085938 2.80015625 5.48046875 2.6328125 C3 2 3 2 0 0 Z " fill="#0A5C6A" transform="translate(137,227)"/>
<path d="M0 0 C0.66 0 1.32 0 2 0 C2 3.96 2 7.92 2 12 C1.34 10.68 0.68 9.36 0 8 C-0.61875 7.01 -0.61875 7.01 -1.25 6 C-2 4 -2 4 -1.125 1.75 C-0.75375 1.1725 -0.3825 0.595 0 0 Z " fill="#159389" transform="translate(316,109)"/>
<path d="M0 0 C0 1.65 0 3.3 0 5 C-3 5 -3 5 -6 3 C-6 2.01 -6 1.02 -6 0 C-3.50907189 -1.24546405 -2.58919267 -0.7767578 0 0 Z " fill="#0D8883" transform="translate(213,76)"/>
<path d="M0 0 C-3.11910856 1.79275866 -5.67682428 2.34290718 -9.25 2.625 C-10.14203125 2.69976562 -11.0340625 2.77453125 -11.953125 2.8515625 C-12.62859375 2.90054687 -13.3040625 2.94953125 -14 3 C-9.0469453 -0.92828476 -6.21396078 -1.05520089 0 0 Z " fill="#DBF3F4" transform="translate(214,262)"/>
<path d="M0 0 C3.21524305 1.40844718 5.32183868 3.10344786 7.75 5.625 C8.67039062 6.57246094 8.67039062 6.57246094 9.609375 7.5390625 C10.29773438 8.26222656 10.29773438 8.26222656 11 9 C10.01 9 9.02 9 8 9 C6.33333333 7.33333333 4.66666667 5.66666667 3 4 C2.01 4 1.02 4 0 4 C0 2.68 0 1.36 0 0 Z " fill="#0B434E" transform="translate(113,186)"/>
<path d="M0 0 C2.26631621 1.48727001 3.50512823 3.07019234 5 5.3125 C3.51800098 4.86340939 2.03944764 4.40293436 0.5625 3.9375 C-0.26121094 3.68226563 -1.08492188 3.42703125 -1.93359375 3.1640625 C-4 2.3125 -4 2.3125 -5 0.3125 C-2 -0.6875 -2 -0.6875 0 0 Z " fill="#085B69" transform="translate(116,189.6875)"/>
<path d="M0 0 C0.33 0.99 0.66 1.98 1 3 C0.2575 3.556875 -0.485 4.11375 -1.25 4.6875 C-3.91707995 6.93027178 -5.91556232 9.22074975 -8 12 C-8.66 11.67 -9.32 11.34 -10 11 C-6.7 7.37 -3.4 3.74 0 0 Z " fill="#D7F2F3" transform="translate(123,89)"/>
<path d="M0 0 C0.33 0.66 0.66 1.32 1 2 C-0.21484375 4.8203125 -0.21484375 4.8203125 -1.9375 8.125 C-2.50339844 9.22070312 -3.06929687 10.31640625 -3.65234375 11.4453125 C-4.09707031 12.28835937 -4.54179688 13.13140625 -5 14 C-6.34374179 9.96877462 -5.4530301 7.94393885 -4 4 C-1.875 1.5625 -1.875 1.5625 0 0 Z " fill="#124D55" transform="translate(39,85)"/>
<path d="M0 0 C0.66 0 1.32 0 2 0 C4.02055843 4.39251833 5.40895235 8.15340923 6 13 C2.57068046 9.2440786 1.43570917 4.76533255 0 0 Z " fill="#E1F4F7" transform="translate(33,184)"/>
<path d="M0 0 C8 0 8 0 10 1 C6.55930376 3.29379749 5.27709699 4 1 4 C0.67 2.68 0.34 1.36 0 0 Z " fill="#0F6E6E" transform="translate(130,77)"/>
<path d="M0 0 C0.33 0 0.66 0 1 0 C1 1.65 1 3.3 1 5 C-3.62 5 -8.24 5 -13 5 C-13 4.67 -13 4.34 -13 4 C-12.22914063 3.96261719 -11.45828125 3.92523438 -10.6640625 3.88671875 C-9.15972656 3.78810547 -9.15972656 3.78810547 -7.625 3.6875 C-6.62726563 3.62949219 -5.62953125 3.57148438 -4.6015625 3.51171875 C-3.74304688 3.34285156 -2.88453125 3.17398437 -2 3 C-1.34 2.01 -0.68 1.02 0 0 Z " fill="#DCF3F4" transform="translate(164,262)"/>
<path d="M0 0 C0.33 0 0.66 0 1 0 C1.1875 2.3125 1.1875 2.3125 1 5 C-0.4375 6.625 -0.4375 6.625 -2 8 C-2.33 8.99 -2.66 9.98 -3 11 C-3.66 11 -4.32 11 -5 11 C-3.77782954 6.95743617 -2.37245704 3.50711041 0 0 Z " fill="#E0F7F8" transform="translate(42,82)"/>
<path d="M0 0 C-4.75 4.875 -4.75 4.875 -7 6 C-6.67 4.68 -6.34 3.36 -6 2 C-6.66 1.67 -7.32 1.34 -8 1 C-5.29120665 -0.35439668 -2.99066732 -0.06501451 0 0 Z " fill="#0E696B" transform="translate(129,84)"/>
<path d="M0 0 C2.475 0.495 2.475 0.495 5 1 C5 2.98 5 4.96 5 7 C2.5 5.75 2.5 5.75 0 4 C0 2.68 0 1.36 0 0 Z " fill="#188F82" transform="translate(296,73)"/>
<path d="M0 0 C1.45947705 0.06006078 2.91779272 0.1488689 4.375 0.25 C5.59316406 0.31960937 5.59316406 0.31960937 6.8359375 0.390625 C9 1 9 1 10.2890625 3.046875 C10.64097656 4.01367188 10.64097656 4.01367188 11 5 C9.53932801 4.54917531 8.08151968 4.08906463 6.625 3.625 C5.81289062 3.36976563 5.00078125 3.11453125 4.1640625 2.8515625 C2 2 2 2 0 0 Z " fill="#E8F9FB" transform="translate(101,252)"/>
<path d="M0 0 C0.99 0.33 1.98 0.66 3 1 C5.14255793 0.61067144 5.14255793 0.61067144 7 0 C7.33 0.99 7.66 1.98 8 3 C5.69 3.33 3.38 3.66 1 4 C0.67 2.68 0.34 1.36 0 0 Z " fill="#0E7D7D" transform="translate(253,246)"/>
<path d="M0 0 C3.875 4.75 3.875 4.75 5 7 C3.35 7.66 1.7 8.32 0 9 C0.33 7.68 0.66 6.36 1 5 C0.34 5 -0.32 5 -1 5 C-0.67 3.35 -0.34 1.7 0 0 Z " fill="#075265" transform="translate(39,201)"/>
<path d="M0 0 C1.20628008 2.33214148 2.1654738 4.49642139 3 7 C1.66666667 8.33333333 0.33333333 9.66666667 -1 11 C-2.41687119 6.74938644 -1.19320039 4.28148375 0 0 Z " fill="#22837E" transform="translate(315,168)"/>
<path d="M0 0 C3.96 0.33 7.92 0.66 12 1 C12 1.33 12 1.66 12 2 C6.06 2.495 6.06 2.495 0 3 C0 2.01 0 1.02 0 0 Z " fill="#08414D" transform="translate(136,265)"/>
<path d="M0 0 C0.66 0.33 1.32 0.66 2 1 C-0.51830747 4.12270126 -1.7261549 4.94523098 -5.75 5.75 C-7.35875 5.87375 -7.35875 5.87375 -9 6 C-6.12050853 3.76039553 -3.23257974 1.70135776 0 0 Z " fill="#E1F8FA" transform="translate(221,220)"/>
<path d="M0 0 C1.32 0 2.64 0 4 0 C2.68775452 3.93673644 1.08089673 6.22719294 -2 9 C-0.125 4.25 -0.125 4.25 1 2 C0.34 1.67 -0.32 1.34 -1 1 C-0.67 0.67 -0.34 0.34 0 0 Z " fill="#0D555A" transform="translate(42,76)"/>
<path d="M0 0 C1.32 0.66 2.64 1.32 4 2 C0.37 3.32 -3.26 4.64 -7 6 C-7 5.34 -7 4.68 -7 4 C-1.921875 0.6796875 -1.921875 0.6796875 0 0 Z " fill="#D8F4F4" transform="translate(135,51)"/>
<path d="M0 0 C2.00720923 0.28674418 4.0085944 0.61866701 6 1 C5.34 2.65 4.68 4.3 4 6 C2.35 4.35 0.7 2.7 -1 1 C-0.67 0.67 -0.34 0.34 0 0 Z " fill="#12998B" transform="translate(272,46)"/>
<path d="M0 0 C0.94875 0.04125 1.8975 0.0825 2.875 0.125 C0.71865964 2.28134036 -1.49598712 3.60293991 -4.125 5.125 C-4.455 4.135 -4.785 3.145 -5.125 2.125 C-3.125 0.125 -3.125 0.125 0 0 Z " fill="#08636E" transform="translate(188.125,267.875)"/>
<path d="M0 0 C9.41002278 0.96355353 9.41002278 0.96355353 14 2 C14 2.33 14 2.66 14 3 C12.22992286 3.08114106 10.45877902 3.13925505 8.6875 3.1875 C7.70136719 3.22230469 6.71523437 3.25710937 5.69921875 3.29296875 C3 3 3 3 1.14453125 1.48828125 C0.76683594 0.99714844 0.38914063 0.50601563 0 0 Z " fill="#E3F7F8" transform="translate(141,231)"/>
<path d="M0 0 C0.93423645 3.01031744 1.04449911 3.86650268 0 7 C-0.66 7 -1.32 7 -2 7 C-2 6.34 -2 5.68 -2 5 C-2.66 4.67 -3.32 4.34 -4 4 C-2.68 2.68 -1.36 1.36 0 0 Z " fill="#0E8684" transform="translate(197,67)"/>
<path d="M0 0 C2 2 2 2 3 5 C-0.3 4.01 -3.6 3.02 -7 2 C-7 1.67 -7 1.34 -7 1 C-5.5459375 1.0309375 -5.5459375 1.0309375 -4.0625 1.0625 C-1.12534105 1.35618499 -1.12534105 1.35618499 0 0 Z " fill="#17958B" transform="translate(239,25)"/>
<path d="M0 0 C2.97 0 5.94 0 9 0 C5.55549263 2.29633824 3.06187717 2.54016485 -1 3 C-0.67 2.01 -0.34 1.02 0 0 Z " fill="#DCF4F4" transform="translate(187,207)"/>
<path d="M0 0 C1 3 1 3 1 5 C-0.33333333 6.33333333 -1.66666667 7.66666667 -3 9 C-3.33 8.34 -3.66 7.68 -4 7 C-3.22265625 5.2734375 -3.22265625 5.2734375 -2.0625 3.375 C-1.381875 2.26125 -0.70125 1.1475 0 0 Z " fill="#0F7B7B" transform="translate(237,170)"/>
<path d="M0 0 C0.99 0 1.98 0 3 0 C3 1.65 3 3.3 3 5 C2.34 5 1.68 5 1 5 C0.67 5.99 0.34 6.98 0 8 C0 5.36 0 2.72 0 0 Z " fill="#1E847E" transform="translate(263,149)"/>
<path d="M0 0 C0.99 0.99 1.98 1.98 3 3 C2.8125 5.625 2.8125 5.625 2 8 C1.01 8.495 1.01 8.495 0 9 C0 6.03 0 3.06 0 0 Z " fill="#065D6E" transform="translate(74,124)"/>
<path d="M0 0 C0.99 0 1.98 0 3 0 C3 1.65 3 3.3 3 5 C2.01 5.33 1.02 5.66 0 6 C-0.38218767 4.34385343 -0.71395102 2.67542976 -1 1 C-0.67 0.67 -0.34 0.34 0 0 Z " fill="#109487" transform="translate(313,101)"/>
<path d="M0 0 C1.32 0 2.64 0 4 0 C4 1.98 4 3.96 4 6 C3.01 6.495 3.01 6.495 2 7 C0.5393715 4.35261084 0 3.10551666 0 0 Z " fill="#07696A" transform="translate(111,93)"/>
<path d="M0 0 C2.97 0.495 2.97 0.495 6 1 C5.01 2.485 5.01 2.485 4 4 C2.68 4 1.36 4 0 4 C0 2.68 0 1.36 0 0 Z " fill="#1B8681" transform="translate(230,78)"/>
<path d="M0 0 C2.125 0.9375 2.125 0.9375 4 2 C0.25 5 0.25 5 -2 5 C-2 3.68 -2 2.36 -2 1 C-1.34 0.67 -0.68 0.34 0 0 Z " fill="#0E6D6A" transform="translate(78,41)"/>
<path d="M0 0 C2.475 0.99 2.475 0.99 5 2 C4.01 2.99 3.02 3.98 2 5 C1.01 4.01 0.02 3.02 -1 2 C-0.67 1.34 -0.34 0.68 0 0 Z " fill="#1B7978" transform="translate(241,197)"/>
<path d="M0 0 C1.98 0 3.96 0 6 0 C6 1.65 6 3.3 6 5 C3.5625 4.1875 3.5625 4.1875 1 3 C0.67 2.01 0.34 1.02 0 0 Z " fill="#21827B" transform="translate(200,75)"/>
<path d="M0 0 C-1.11666174 3.34998521 -1.74694925 3.79340222 -4.5625 5.6875 C-5.20316406 6.12449219 -5.84382813 6.56148438 -6.50390625 7.01171875 C-6.99761719 7.33785156 -7.49132812 7.66398437 -8 8 C-6.48291727 4.46014029 -4.24676932 0 0 0 Z " fill="#DEF8F8" transform="translate(107,68)"/>
</svg>
