<?xml version="1.0" encoding="UTF-8"?>
<svg version="1.1" xmlns="http://www.w3.org/2000/svg" width="831" height="840">
<path d="M0 0 C274.23 0 548.46 0 831 0 C831 277.2 831 554.4 831 840 C556.77 840 282.54 840 0 840 C0 562.8 0 285.6 0 0 Z " fill="#004049" transform="translate(0,0)"/>
<path d="M0 0 C0.72189514 -0.00067474 1.44379028 -0.00134949 2.18756104 -0.00204468 C85.81111622 0.11992866 168.23427809 31.15075459 231.875 85.25 C232.92550271 86.11492175 233.97630212 86.97948322 235.02734375 87.84375 C243.51994047 94.92331501 251.41909605 102.58043157 259.25 110.375 C259.76001556 110.87983917 260.27003113 111.38467834 260.79550171 111.90481567 C267.61755775 118.67220627 273.89581695 125.71731319 279.875 133.25 C280.85144658 134.42393015 281.83134149 135.59501084 282.81640625 136.76171875 C333.72017109 198.00262879 360.07279096 278.89323539 360.125 358.0625 C360.12601212 359.44869034 360.12601212 359.44869034 360.12704468 360.86288452 C360.0637854 415.78671738 348.42401283 470.53766913 324.875 520.25 C324.36356445 521.33522949 324.36356445 521.33522949 323.84179688 522.44238281 C321.62528672 527.10234204 319.27854913 531.68423948 316.875 536.25 C316.49327637 536.98686035 316.11155273 537.7237207 315.71826172 538.48291016 C298.43429191 571.70431597 275.3985246 600.89556639 249 627.3125 C248.08347656 628.24126953 247.16695312 629.17003906 246.22265625 630.12695312 C240.08615127 636.27640432 233.67755664 641.8531451 226.875 647.25 C225.64349338 648.26278639 224.41400207 649.27803374 223.1875 650.296875 C213.50130698 658.24153621 203.35550511 665.39327012 192.875 672.25 C192.16037598 672.71760742 191.44575195 673.18521484 190.70947266 673.66699219 C149.84077629 700.11312275 104.62234882 716.82476803 56.875 725.25 C55.79347656 725.45463867 54.71195312 725.65927734 53.59765625 725.87011719 C52.58574219 726.05477539 51.57382812 726.23943359 50.53125 726.4296875 C49.24444336 726.66921143 49.24444336 726.66921143 47.93164062 726.91357422 C45.13904582 727.22093809 42.48971841 727.28329446 39.68395996 727.27102661 C38.78341637 727.26799089 37.88287277 727.26495518 36.95503998 727.26182747 C36.26862679 727.2579244 35.58221359 727.25402134 34.875 727.25 C34.85167098 710.96929697 34.83402081 694.68859933 34.82318783 678.40788364 C34.81802488 670.84898381 34.8109822 663.29009435 34.79956055 655.73120117 C34.78961368 649.14520334 34.78314657 642.55921302 34.78091151 635.97320789 C34.7796044 632.48386929 34.77651858 628.99455216 34.76926994 625.50522041 C34.76125602 621.61618768 34.76100886 617.72717622 34.76147461 613.83813477 C34.75787933 612.67288773 34.75428406 611.50764069 34.75057983 610.30708313 C34.7519545 609.25393921 34.75332916 608.20079529 34.75474548 607.11573792 C34.75336279 605.73443113 34.75336279 605.73443113 34.75195217 604.32521915 C34.875 602.25 34.875 602.25 35.875 601.25 C37.21189326 601.02386353 38.55829409 600.85344221 39.90625 600.70703125 C86.53891459 595.24369885 131.35358083 578.14029492 167.875 548.25 C168.80183594 547.51394531 169.72867188 546.77789063 170.68359375 546.01953125 C222.70976041 504.32480194 256.71426498 443.90781545 264.1875 377.47192383 C265.00697829 368.84618314 265.11596746 360.21954781 265.125 351.5625 C265.12700912 350.41589401 265.12700912 350.41589401 265.12905884 349.24612427 C265.12147117 329.13698496 262.18733294 310.12399762 258.875 290.25 C165.155 290.25 71.435 290.25 -25.125 290.25 C-25.125 372.42 -25.125 454.59 -25.125 539.25 C-36.39772727 538.12272727 -36.39772727 538.12272727 -40.4296875 537.0859375 C-41.33203125 536.85495361 -42.234375 536.62396973 -43.1640625 536.38598633 C-44.09992188 536.13486084 -45.03578125 535.88373535 -46 535.625 C-47.0003125 535.35776123 -48.000625 535.09052246 -49.03125 534.81518555 C-78.90049832 526.6602191 -106.81352907 513.56548124 -131.125 494.25 C-132.38376953 493.29673828 -132.38376953 493.29673828 -133.66796875 492.32421875 C-167.05363879 466.31269066 -189.88180732 429.77832967 -201.125 389.25 C-201.33882324 388.48171875 -201.55264648 387.7134375 -201.77294922 386.921875 C-215.48640277 336.4115873 -205.56414095 280.72859772 -180.01855469 235.63891602 C-165.90860563 211.62623853 -147.14214469 189.31755402 -125.125 172.25 C-124.5774707 171.82074219 -124.02994141 171.39148438 -123.46582031 170.94921875 C-113.59649532 163.25768417 -103.23883821 156.980375 -92.125 151.25 C-91.49126465 150.92016113 -90.8575293 150.59032227 -90.20458984 150.25048828 C-74.26071288 142.05799926 -56.71089694 136.59093728 -39.125 133.25 C-37.83384277 132.98509766 -37.83384277 132.98509766 -36.51660156 132.71484375 C-25.69624799 130.74302533 -14.84043922 130.85220191 -3.875 130.875 C-2.33798935 130.87631424 -2.33798935 130.87631424 -0.76992798 130.87765503 C14.80495651 130.92162308 29.67820671 131.55233484 44.875 135.25 C46.392146 135.60408936 46.392146 135.60408936 47.93994141 135.96533203 C82.49989915 144.21313853 113.17863161 160.9999836 139.875 184.25 C140.50664063 183.61707031 141.13828125 182.98414063 141.7890625 182.33203125 C144.27694801 179.84327034 146.77487102 177.36475339 149.2734375 174.88671875 C150.93235698 173.23704484 152.59120932 171.58730342 154.25 169.9375 C155.075 169.12087891 155.9 168.30425781 156.75 167.46289062 C163.53153682 160.70826467 169.78745213 153.6288459 175.875 146.25 C147.53170325 124.00589369 117.24255418 105.64661475 82.875 94.25 C82.215 94.02650879 81.555 93.80301758 80.875 93.57275391 C71.25448519 90.36025841 61.41371728 88.17020628 51.5 86.0625 C50.34258301 85.81234131 49.18516602 85.56218262 47.99267578 85.30444336 C31.92538545 82.00329685 15.96962647 80.91099406 -0.40405273 80.98925781 C-3.05801286 80.99998187 -5.7112944 80.98927833 -8.36523438 80.9765625 C-23.94028853 80.96336901 -39.48474422 82.06167761 -54.8125 84.9375 C-55.70638428 85.10411133 -56.60026855 85.27072266 -57.52124023 85.44238281 C-98.21537531 93.40359202 -139.12526416 110.55480258 -171.125 137.25 C-172.19530303 138.12891778 -173.26561582 139.00782368 -174.3359375 139.88671875 C-225.39115799 182.1696689 -258.09525205 240.68280733 -268.125 306.25 C-268.30377686 307.35786865 -268.48255371 308.4657373 -268.66674805 309.60717773 C-270.16684787 319.63078465 -270.48507542 329.44343784 -270.4375 339.5625 C-270.43534485 340.39148804 -270.4331897 341.22047607 -270.43096924 342.07458496 C-270.1349825 413.42963009 -241.08771793 478.80853652 -190.75073242 528.86083984 C-185.12606098 534.37624275 -179.3887219 539.46508162 -173.125 544.25 C-172.19558594 545.00796875 -171.26617187 545.7659375 -170.30859375 546.546875 C-136.9637417 573.29089427 -96.75499571 589.52311838 -55.1875 598.0625 C-54.24261719 598.25755127 -53.29773438 598.45260254 -52.32421875 598.65356445 C-43.25375354 600.41407341 -34.40273854 601.21914016 -25.125 602.25 C-25.125 643.5 -25.125 684.75 -25.125 727.25 C-43.6653481 727.25 -43.6653481 727.25 -53.1875 725.5625 C-54.25129883 725.38098389 -55.31509766 725.19946777 -56.41113281 725.01245117 C-59.65351066 724.44683637 -62.88963544 723.85434829 -66.125 723.25 C-67.08325684 723.07339844 -68.04151367 722.89679687 -69.02880859 722.71484375 C-95.38606051 717.74264601 -120.60094591 709.00144511 -145.125 698.25 C-146.05747559 697.84168945 -146.98995117 697.43337891 -147.95068359 697.01269531 C-198.34543388 674.64149368 -246.16785226 637.82640802 -280.125 594.25 C-280.59583008 593.65703125 -281.06666016 593.0640625 -281.55175781 592.453125 C-294.56426684 576.05424784 -305.93188979 558.52902794 -316.125 540.25 C-316.59260742 539.41194824 -317.06021484 538.57389648 -317.54199219 537.71044922 C-341.31917426 494.64663395 -356.55182192 445.40321231 -360.125 396.25 C-360.25201294 394.56028076 -360.25201294 394.56028076 -360.3815918 392.83642578 C-366.42516167 305.71964673 -345.5310011 216.87394664 -279.84790039 130.33789062 C-278.59406534 128.81843514 -277.35865122 127.28372189 -276.13452148 125.74023438 C-270.80832613 119.06863074 -265.12388184 112.96655017 -259.05883789 106.97802734 C-257.55484161 105.49243532 -256.05915095 103.99884795 -254.56445312 102.50390625 C-249.25460796 97.21299355 -243.86362641 92.07481295 -238.125 87.25 C-237.22140747 86.48623047 -237.22140747 86.48623047 -236.29956055 85.70703125 C-183.23730375 41.25042505 -119.37682229 12.69787458 -50.8125 3.375 C-50.05030151 3.27108948 -49.28810303 3.16717896 -48.50280762 3.06011963 C-32.36901816 0.89953931 -16.27635652 0.01405228 0 0 Z " fill="#FEFEFE" transform="translate(413.125,54.75)"/>
<path d="M0 0 C274.23 0 548.46 0 831 0 C831 277.2 831 554.4 831 840 C556.77 840 282.54 840 0 840 C0 562.8 0 285.6 0 0 Z M345.0625 21.25 C343.80727539 21.46615967 342.55205078 21.68231934 341.25878906 21.9050293 C277.76264131 33.15766352 215.5064015 59.59979666 165 100 C163.64080703 101.07054365 162.28143169 102.1408558 160.921875 103.2109375 C147.49751025 113.85963025 135.28975887 125.63688909 123.125 137.6875 C122.25721924 138.54214844 121.38943848 139.39679688 120.49536133 140.27734375 C115.31226978 145.45398435 110.55439334 150.82131165 105.97412109 156.5378418 C104.40814258 158.49095746 102.82007096 160.40198893 101.171875 162.28515625 C53.63563947 216.79848441 24.50385603 288.92690851 14.421875 360.02587891 C14.14240579 361.99607213 13.85088368 363.96459619 13.546875 365.93115234 C-1.88110017 467.62611368 27.95859398 578.76199718 88.61376953 661.13476562 C97.18505688 672.66781166 106.0760637 683.92053187 115.76171875 694.54296875 C117.23458807 696.15978342 118.69592425 697.787193 120.14453125 699.42578125 C128.51542189 708.88262527 137.35624946 717.83731412 147 726 C148.04912534 726.91167033 149.09720841 727.82454078 150.14453125 728.73828125 C157.87777711 735.46440166 165.77553463 741.88266572 174 748 C174.65419922 748.49081055 175.30839844 748.98162109 175.98242188 749.48730469 C221.40286134 783.45739106 273.76908699 807.17965959 329.13037109 819.36816406 C330.9191901 819.76202688 332.70633532 820.1636715 334.49072266 820.57714844 C374.12087023 829.71811678 416.70824695 830.34021403 457 826 C458.14807129 825.87641113 459.29614258 825.75282227 460.47900391 825.62548828 C498.87885848 821.29467762 536.81529725 811.03353543 572 795 C573.02673828 794.53335938 574.05347656 794.06671875 575.11132812 793.5859375 C607.14670214 778.89405536 636.71155386 760.29830195 664 738 C664.83402344 737.34 665.66804687 736.68 666.52734375 736 C677.85673728 726.9497943 688.23031853 716.84426339 698.5 706.625 C699.46909302 705.66291626 699.46909302 705.66291626 700.45776367 704.68139648 C704.83970515 700.28470673 708.95874801 695.71011521 713 691 C713.88929543 689.97914272 714.77861611 688.95830743 715.66796875 687.9375 C733.84114875 666.7495444 749.62916801 643.49621776 763 619 C763.4842041 618.11521973 763.9684082 617.23043945 764.46728516 616.31884766 C794.44109302 561.15356982 812.99198875 497.09520413 814 434 C814.03867188 432.12030518 814.03867188 432.12030518 814.078125 430.20263672 C814.4884462 408.91131824 813.64284383 388.1542538 811 367 C810.86609863 365.87400391 810.73219727 364.74800781 810.59423828 363.58789062 C800.28008347 278.5242429 761.32917981 199.55500876 695.52050781 132.33520508 C693.99513287 130.80762584 692.47799328 129.27216418 690.9609375 127.73632812 C684.63274386 121.37251733 678.03529554 115.58753398 671 110 C669.97235492 109.13672487 668.94893773 108.26833507 667.93359375 107.390625 C604.18113517 52.71715505 513.38847431 16.91504552 428.984375 16.83203125 C427.77090393 16.82870285 426.55743286 16.82537445 425.30718994 16.82194519 C422.74906794 16.81691113 420.19093945 16.81453577 417.6328125 16.81469727 C413.80196705 16.81252941 409.97141898 16.79438671 406.140625 16.77539062 C385.60575552 16.72709574 365.31481717 17.69648176 345.0625 21.25 Z " fill="#FEFEFE" transform="translate(0,0)"/>
<path d="M0 0 C54.45 0 108.9 0 165 0 C165 8.79245771 164.94386343 16.94255319 163.8125 25.5625 C163.6117688 27.10031128 163.6117688 27.10031128 163.40698242 28.66918945 C157.92759786 68.26422965 140.53822314 105.00789552 113 134 C112.51080078 134.52174805 112.02160156 135.04349609 111.51757812 135.58105469 C82.85248835 165.98289102 44.1354956 185.22579054 3 192 C2.01 192 1.02 192 0 192 C0 128.64 0 65.28 0 0 Z " fill="#FDFEFE" transform="translate(448,402)"/>
<path d="M0 0 C7.36061209 0.55971321 13.96755147 2.2325316 21 4.4375 C22.13429443 4.79166992 23.26858887 5.14583984 24.43725586 5.51074219 C72.33214276 20.79838966 116.11904579 46.05775549 154 79 C154.71285156 79.61230469 155.42570313 80.22460938 156.16015625 80.85546875 C168.12826865 91.20161931 179.74981552 101.92756051 190 114 C190.83402344 114.96808594 191.66804687 115.93617188 192.52734375 116.93359375 C207.45793372 134.32380896 220.9269177 152.89361372 232 173 C231.01 173 230.02 173 229 173 C227.84008789 171.61743164 227.84008789 171.61743164 226.72265625 169.66015625 C226.29791016 168.93538086 225.87316406 168.21060547 225.43554688 167.46386719 C224.98244141 166.67141602 224.52933594 165.87896484 224.0625 165.0625 C215.49015458 150.57005831 205.66824242 137.01830489 195 124 C194.5467334 123.44231934 194.0934668 122.88463867 193.62646484 122.31005859 C186.36630838 113.4449987 178.44881791 105.24355677 170.375 97.125 C169.65334656 96.39544601 169.65334656 96.39544601 168.91711426 95.65115356 C162.29186711 88.96984402 155.35839923 82.8648033 148 77 C146.97254405 76.13649979 145.94914889 75.26809073 144.93359375 74.390625 C106.02404891 41.02218905 57.15524948 16.10751842 7.48583984 3.79956055 C6.64102051 3.58726807 5.79620117 3.37497559 4.92578125 3.15625 C4.18755127 2.97900391 3.44932129 2.80175781 2.6887207 2.61914062 C1 2 1 2 0 0 Z " fill="#061016" transform="translate(497,64)"/>
<path d="M0 0 C0.66 0 1.32 0 2 0 C2.15968262 0.56581787 2.31936523 1.13163574 2.48388672 1.71459961 C7.01181456 17.57823451 12.56374595 32.81450276 19 48 C19.36851074 48.87221191 19.73702148 49.74442383 20.11669922 50.64306641 C29.24940953 72.05582381 40.06328645 92.64329945 53 112 C53.69174316 113.04075684 53.69174316 113.04075684 54.39746094 114.10253906 C74.50441006 144.22728683 98.66862711 174.6771917 127.4140625 196.984375 C131.18918622 199.92691857 134.79409137 203.06460927 138.41186523 206.19750977 C141.79876074 209.09528811 145.25686284 211.59969232 149 214 C148.34 214.66 147.68 215.32 147 216 C125.54858427 198.72743149 103.83116456 181.12077143 86 160 C84.75283203 158.55173828 84.75283203 158.55173828 83.48046875 157.07421875 C50.95494345 119.19419834 0 52.03366157 0 0 Z " fill="#060F15" transform="translate(27,532)"/>
<path d="M0 0 C0.33 0 0.66 0 1 0 C5.70390286 76.83041338 -35.47845546 163.60167918 -81.125 223.1875 C-81.79946167 224.08045776 -81.79946167 224.08045776 -82.48754883 224.99145508 C-83.7578125 226.60546875 -83.7578125 226.60546875 -86 229 C-86.99 229 -87.98 229 -89 229 C-88.39414062 228.22398437 -87.78828125 227.44796875 -87.1640625 226.6484375 C-35.40412953 160.07161027 -8.98298601 83.3415265 0 0 Z " fill="#050E14" transform="translate(811,447)"/>
<path d="M0 0 C0.99 0.33 1.98 0.66 3 1 C1.33424841 2.52183555 -0.33265671 4.0424085 -2 5.5625 C-2.50547363 6.02358154 -3.01094727 6.48466309 -3.53173828 6.9597168 C-6.27630454 9.45647947 -9.0478571 11.91003522 -11.875 14.3125 C-19.77899217 21.18978803 -27.32442158 28.76071373 -34.09375 36.7578125 C-35.6333048 38.56868228 -37.19644289 40.34636523 -38.78125 42.1171875 C-51.79140051 56.74273976 -63.54307226 72.45125571 -74 89 C-74.35690918 89.56364258 -74.71381836 90.12728516 -75.08154297 90.70800781 C-85.44192874 107.21470543 -94.62835761 124.4564192 -102.5625 142.25 C-103.29496948 143.8901709 -103.29496948 143.8901709 -104.04223633 145.56347656 C-106.73119298 151.71743844 -109.05712646 157.8963169 -111.11572266 164.28808594 C-111.86129848 166.57462825 -112.65849644 168.81776113 -113.51953125 171.0625 C-115.4020778 175.98745592 -117.03395859 180.99449886 -118.6875 186 C-119.16799805 187.44826172 -119.16799805 187.44826172 -119.65820312 188.92578125 C-120.44018549 191.28339972 -121.22075345 193.64147617 -122 196 C-122.33 196 -122.66 196 -123 196 C-122.52430458 187.62044225 -119.99759035 180.11099248 -117.25 172.25 C-117.00934814 171.55458099 -116.76869629 170.85916199 -116.52075195 170.14266968 C-103.66180435 133.1563477 -85.22858668 98.50759789 -62 67 C-61.57122559 66.41814941 -61.14245117 65.83629883 -60.70068359 65.23681641 C-54.20145295 56.48073235 -47.20374451 48.18019243 -40 40 C-39.19691406 39.08347656 -38.39382812 38.16695312 -37.56640625 37.22265625 C-31.20037224 30.12325512 -24.4799163 23.3762319 -17.75 16.625 C-17.27210022 16.14442139 -16.79420044 15.66384277 -16.30181885 15.16870117 C-4.80251807 3.62055119 -4.80251807 3.62055119 0 0 Z " fill="#081218" transform="translate(150,112)"/>
<path d="M0 0 C0.99 0.495 0.99 0.495 2 1 C-8.87640781 13.68329492 -19.96006202 26.03121498 -31.75 37.875 C-32.44706055 38.5767334 -33.14412109 39.2784668 -33.86230469 40.00146484 C-70.08488082 76.11240193 -115.90424981 103.70559883 -163 123 C-163.75684082 123.32210449 -164.51368164 123.64420898 -165.29345703 123.97607422 C-169.00283963 125.48977614 -171.17854034 126.23213569 -175 125 C-174.40388916 124.75991211 -173.80777832 124.51982422 -173.19360352 124.27246094 C-107.0694377 97.5080675 -49.31927689 58.265486 -3.1953125 3.59765625 C-1 1 -1 1 0 0 Z " fill="#060F15" transform="translate(721,678)"/>
<path d="M0 0 C0.66 0.33 1.32 0.66 2 1 C1.33355469 2.10472656 0.66710937 3.20945312 -0.01953125 4.34765625 C-25.12898044 46.50945665 -39.55513896 92.37697724 -39.20581055 141.64135742 C-39.187197 144.35670109 -39.18530436 147.07170759 -39.18554688 149.78710938 C-39.18064143 151.54166959 -39.17481742 153.29622754 -39.16796875 155.05078125 C-39.16685593 155.84873611 -39.1657431 156.64669098 -39.16459656 157.46882629 C-39.12577473 162.06772673 -38.72327768 166.44655726 -38 171 C-37.9383819 172.8115721 -37.91267192 174.62505032 -37.9375 176.4375 C-37.94652344 177.30246094 -37.95554688 178.16742188 -37.96484375 179.05859375 C-37.97644531 179.69925781 -37.98804688 180.33992187 -38 181 C-51.3539692 160.96904621 -42.09484192 113.99700954 -37.74414062 91.58056641 C-35.94135984 82.90616252 -33.71847633 74.43090565 -31 66 C-30.72929687 65.15195801 -30.45859375 64.30391602 -30.1796875 63.43017578 C-24.93251156 47.21971227 -18.14991276 31.92656788 -10.3125 16.8125 C-9.63525879 15.50261108 -9.63525879 15.50261108 -8.94433594 14.16625977 C-6.29122862 9.13985743 -3.41377446 4.54554834 0 0 Z " fill="#071117" transform="translate(184,255)"/>
<path d="M0 0 C0.66 0 1.32 0 2 0 C0.62833912 3.07219952 -0.93888477 5.19544655 -3.30859375 7.57421875 C-3.96754639 8.23728027 -4.62649902 8.9003418 -5.30541992 9.58349609 C-6.36079956 10.62497803 -6.36079956 10.62497803 -7.4375 11.6875 C-8.16106689 12.40502441 -8.88463379 13.12254883 -9.63012695 13.86181641 C-15.16358329 19.29385985 -20.84627995 24.27530057 -27 29 C-28.00160156 29.79535156 -29.00320313 30.59070313 -30.03515625 31.41015625 C-43.5072795 42.05627821 -57.79250255 51.04045443 -73 59 C-73.73138184 59.38542969 -74.46276367 59.77085937 -75.21630859 60.16796875 C-99.22277251 72.64770958 -130.51865947 84.48432832 -157.9375 84.0625 C-158.70964844 84.05347656 -159.48179687 84.04445313 -160.27734375 84.03515625 C-160.84582031 84.02355469 -161.41429687 84.01195312 -162 84 C-158.92402665 81.9493511 -157.50704759 81.59941728 -153.94140625 81.10546875 C-152.925625 80.9573877 -151.90984375 80.80930664 -150.86328125 80.65673828 C-149.77402344 80.50188965 -148.68476563 80.34704102 -147.5625 80.1875 C-98.77244857 72.77786144 -53.95942645 50.58055881 -17.51953125 17.296875 C-15.80096562 15.73018261 -14.06849363 14.17864256 -12.32421875 12.640625 C-6.85986784 7.83390508 -6.85986784 7.83390508 -2 2.4375 C-1.34 1.633125 -0.68 0.82875 0 0 Z " fill="#061119" transform="translate(612,572)"/>
<path d="M0 0 C4.24242031 1.53470044 6.29736061 4.69188838 8.875 8.1875 C18.36216058 20.62672628 29.2281628 31.71947372 41 42 C41.89460938 42.7940625 42.78921875 43.588125 43.7109375 44.40625 C59.35280419 57.90119381 76.62658822 68.65242092 95 78 C95.82387207 78.42152344 96.64774414 78.84304688 97.49658203 79.27734375 C115.57733808 88.43660192 134.58537407 94.36149694 154 100 C154 100.33 154 100.66 154 101 C115.92593328 97.60389891 75.91989144 74.06848108 47 50 C45.89845866 49.10414065 44.79689603 48.20830747 43.6953125 47.3125 C27.39429423 33.87114337 10.63246594 18.47050172 0 0 Z " fill="#070F16" transform="translate(192,549)"/>
<path d="M0 0 C-3.58277441 2.13923214 -7.25484326 2.67335757 -11.31640625 3.26171875 C-12.80406451 3.49115356 -14.29160885 3.72132789 -15.77905273 3.95214844 C-16.55884491 4.07134644 -17.33863708 4.19054443 -18.14205933 4.31335449 C-67.04908654 11.87327725 -115.84503202 28.74559012 -158 55 C-158 54.01 -158 53.02 -158 52 C-115.47037323 27.29068538 -69.6199777 9.95681115 -21.0625 1.625 C-20.09836182 1.45718018 -19.13422363 1.28936035 -18.14086914 1.11645508 C-12.04573715 0.12927917 -6.17070673 -0.19600182 0 0 Z " fill="#060F16" transform="translate(364,20)"/>
<path d="M0 0 C0.99 0.495 0.99 0.495 2 1 C-14.87694401 27.20890128 -35.02023901 52.62448911 -58.71875 72.99609375 C-60.91285658 74.92345107 -63.04743518 76.90574244 -65.17773438 78.90307617 C-74.42350164 87.53435276 -84.46891166 94.97370796 -94.75 102.3125 C-95.77710083 103.05004517 -95.77710083 103.05004517 -96.82495117 103.80249023 C-101.69674619 107.24075094 -106.73803962 110.19836577 -112 113 C-110.84586372 109.53759116 -110.15620324 109.15544762 -107.203125 107.21484375 C-106.41566895 106.68938965 -105.62821289 106.16393555 -104.81689453 105.62255859 C-103.96981934 105.06648926 -103.12274414 104.51041992 -102.25 103.9375 C-81.65972624 90.12999503 -62.96927845 74.14389691 -45.4375 56.625 C-44.55642578 55.75617187 -43.67535156 54.88734375 -42.76757812 53.9921875 C-36.73887555 47.9768326 -31.29636275 41.66373073 -26 35 C-24.98708402 33.76859996 -23.97182681 32.53911789 -22.953125 31.3125 C-15.42681792 22.12983467 -8.695414 12.49894255 -2.11645508 2.61962891 C-1 1 -1 1 0 0 Z " fill="#061218" transform="translate(714,618)"/>
<path d="M0 0 C3.07816229 1.32101414 4.65482649 2.49188582 6.4453125 5.31640625 C7.09306641 6.32525879 7.09306641 6.32525879 7.75390625 7.35449219 C8.20636719 8.08313477 8.65882813 8.81177734 9.125 9.5625 C9.60582031 10.32336914 10.08664062 11.08423828 10.58203125 11.86816406 C12.06932856 14.23671431 13.53802793 16.61574656 15 19 C15.43151367 19.7017334 15.86302734 20.4034668 16.30761719 21.12646484 C19.30288413 26.02983646 22.18270718 30.9924404 25 36 C25.43280273 36.76699219 25.86560547 37.53398437 26.31152344 38.32421875 C37.85720302 59.00355135 46.49929007 80.89660007 54 103.3125 C54.22574707 103.98398071 54.45149414 104.65546143 54.68408203 105.34729004 C63.37053442 131.34113129 63.37053442 131.34113129 63 142 C60.89751164 138.84626745 60.22501521 136.53668652 59.30078125 132.8828125 C58.98254395 131.6467627 58.66430664 130.41071289 58.33642578 129.13720703 C58.16983459 128.48286682 58.00324341 127.82852661 57.831604 127.15435791 C46.31813597 82.14421109 27.20615069 41.11745373 1.10595703 2.7434082 C0 1 0 1 0 0 Z " fill="#091219" transform="translate(740,187)"/>
<path d="M0 0 C3.76059496 1.36534375 6.84281312 3.08664605 10.140625 5.34375 C11.11974854 6.00793945 12.09887207 6.67212891 13.10766602 7.35644531 C14.14463623 8.06381836 15.18160645 8.77119141 16.25 9.5 C55.8985585 36.19126136 98.76183425 54.90975666 145 67 C145 67.33 145 67.66 145 68 C137.23122291 67.57785409 130.26937715 65.85479369 122.875 63.5 C121.74336426 63.14397705 120.61172852 62.7879541 119.44580078 62.42114258 C78.33160439 49.2914942 34.14921963 30.35419484 1 2 C0.67 1.34 0.34 0.68 0 0 Z " fill="#071016" transform="translate(176,748)"/>
<path d="M0 0 C0.495 1.485 0.495 1.485 1 3 C-0.54820866 5.36784854 -2.13017563 7.53431864 -3.875 9.75 C-36.29594782 52.4784553 -45.51690864 101.53461291 -46 154 C-46.33 154 -46.66 154 -47 154 C-53.75229856 122.5072795 -44.50614413 85.2187886 -33 56 C-32.73106934 55.30793457 -32.46213867 54.61586914 -32.18505859 53.90283203 C-24.43290939 34.24982992 -12.69583594 16.77051302 0 0 Z " fill="#040D12" transform="translate(252,260)"/>
<path d="M0 0 C1.65177903 2.94356033 2.33216732 5.34258138 2.67578125 8.69140625 C2.77858398 9.62202881 2.88138672 10.55265137 2.98730469 11.51147461 C3.14827637 13.02173218 3.14827637 13.02173218 3.3125 14.5625 C5.93296626 36.90282568 10.41325256 58.49588631 17 80 C17.39759521 81.32427002 17.39759521 81.32427002 17.80322266 82.67529297 C23.84395982 102.61540656 31.99337796 122.3398641 41.98828125 140.62890625 C43 143 43 143 42 146 C18.28751859 103.21662928 -1.13644331 49.37719894 0 0 Z " fill="#081218" transform="translate(52,447)"/>
<path d="M0 0 C0 0.66 0 1.32 0 2 C-0.66717041 2.32049316 -1.33434082 2.64098633 -2.02172852 2.97119141 C-23.41665752 13.30759477 -43.99099091 24.65402693 -63 39 C-63.80606689 39.60207275 -63.80606689 39.60207275 -64.62841797 40.21630859 C-85.49295375 55.81682765 -106.19330345 73.54148608 -122.80078125 93.6796875 C-124 95 -124 95 -126 96 C-123.79817945 91.2328508 -120.52268225 87.85131218 -117 84 C-116.48260254 83.43216797 -115.96520508 82.86433594 -115.43212891 82.27929688 C-102.97640356 68.64251634 -102.97640356 68.64251634 -96.91015625 63.59375 C-94.60544445 61.67080028 -92.40309115 59.64989081 -90.1875 57.625 C-66.01841752 35.87649331 -38.814664 18.34076729 -9.8125 3.75 C-9.05203369 3.3669873 -8.29156738 2.98397461 -7.50805664 2.58935547 C-2.25839615 0 -2.25839615 0 0 0 Z " fill="#071017" transform="translate(261,86)"/>
<path d="M0 0 C1.18067927 3.54203782 0.75455049 4.46266322 -0.40625 7.92578125 C-0.73463867 8.93439209 -1.06302734 9.94300293 -1.40136719 10.98217773 C-1.76391602 12.08118408 -2.12646484 13.18019043 -2.5 14.3125 C-9.94291374 37.75307985 -15.11143277 61.57666605 -18 86 C-18.08447388 86.68360596 -18.16894775 87.36721191 -18.25598145 88.0715332 C-20.08552863 103.11594514 -20.42361119 118.10807882 -20.625 133.25 C-20.66329804 135.66407475 -20.702356 138.07813757 -20.7421875 140.4921875 C-20.83685824 146.32801693 -20.92225404 152.16392179 -21 158 C-21.33 158 -21.66 158 -22 158 C-27.73291067 106.57532951 -20.15581324 49.18302229 -1 1 C-0.67 0.67 -0.34 0.34 0 0 Z " fill="#030B10" transform="translate(73,287)"/>
<path d="M0 0 C1.94730621 2.92095932 2.71118614 5.00978476 3.6640625 8.34765625 C3.97730469 9.41910889 4.29054687 10.49056152 4.61328125 11.59448242 C4.94714844 12.73892822 5.28101563 13.88337402 5.625 15.0625 C8.95883758 26.16689627 12.85743705 36.61774816 18 47 C18.4630957 47.9585791 18.4630957 47.9585791 18.93554688 48.93652344 C32.11485159 76.0335083 53.51951546 100.56184663 78 118 C76.515 118.495 76.515 118.495 75 119 C72.82953886 117.44749624 70.91546349 115.89751661 68.9375 114.125 C68.35750244 113.61759277 67.77750488 113.11018555 67.17993164 112.58740234 C65.99876293 111.55109548 64.82157199 110.51023693 63.6484375 109.46484375 C62.22656739 108.20133358 60.7867705 106.95804996 59.34375 105.71875 C41.11346949 89.85603839 26.91875761 70.47777889 16 49 C15.6798291 48.3827002 15.3596582 47.76540039 15.02978516 47.12939453 C10.89115682 39.0836541 7.67532145 30.75531071 4.625 22.25 C4.27872559 21.30358643 3.93245117 20.35717285 3.57568359 19.38208008 C1.32886653 12.91473823 0.31040868 6.83563063 0 0 Z " fill="#061017" transform="translate(209,434)"/>
<path d="M0 0 C0.66 0 1.32 0 2 0 C21.04140144 32.93042367 43.07090459 82.34311438 41 121 C38.99115642 117.98673463 38.57172092 116.51815485 37.9921875 113.0390625 C37.81445801 112.02473145 37.63672852 111.01040039 37.45361328 109.96533203 C37.2626709 108.86302246 37.07172852 107.76071289 36.875 106.625 C30.50952937 71.8905047 18.93448917 38.73124448 2.69189453 7.40576172 C0 2.19197417 0 2.19197417 0 0 Z " fill="#081118" transform="translate(729,240)"/>
<path d="M0 0 C0 0.33 0 0.66 0 1 C-1.21171875 1.21914062 -2.4234375 1.43828125 -3.671875 1.6640625 C-50.61595873 10.42645346 -87.85910512 33.08838663 -121 67 C-121.66 66.67 -122.32 66.34 -123 66 C-110.20933601 52.61860618 -97.53618937 40.22152621 -82 30 C-81.24235352 29.49936035 -80.48470703 28.9987207 -79.70410156 28.48291016 C-59.39363751 15.22697615 -37.13592439 5.56468596 -13.375 0.4375 C-12.59979004 0.26895508 -11.82458008 0.10041016 -11.02587891 -0.07324219 C-7.06877728 -0.85142806 -3.89220226 -1.161507 0 0 Z " fill="#040D14" transform="translate(381,187)"/>
<path d="M0 0 C0 0.66 0 1.32 0 2 C-0.60247559 2.27561768 -1.20495117 2.55123535 -1.82568359 2.83520508 C-26.18751492 14.04978505 -47.79131349 27.39623237 -68 45 C-68.69222656 45.58007812 -69.38445312 46.16015625 -70.09765625 46.7578125 C-79.31522075 54.54675235 -88.0748235 63.34817583 -95.765625 72.64453125 C-97 74 -97 74 -99 75 C-97.75060827 70.41889699 -95.22282431 68.03176024 -91.89453125 64.859375 C-90.12986176 63.12745195 -88.57430538 61.34131116 -87 59.4375 C-70.22782325 40.07632953 -27.25127419 0 0 0 Z " fill="#071119" transform="translate(301,157)"/>
<path d="M0 0 C0.33 0 0.66 0 1 0 C1 41.58 1 83.16 1 126 C17.81943693 123.80554138 17.81943693 123.80554138 34.4375 120.8125 C40.07081313 119.62903086 45.23345551 118.77492626 51 119 C45.22506791 122.23396197 38.78399761 123.32732771 32.30859375 124.2890625 C31.60025894 124.39721283 30.89192413 124.50536316 30.16212463 124.61679077 C28.67588734 124.8424812 27.18930225 125.06589214 25.70239258 125.28710938 C23.4391864 125.62474841 21.17760643 125.97203585 18.91601562 126.3203125 C17.46362899 126.53964153 16.01115766 126.75841063 14.55859375 126.9765625 C13.55523232 127.13120468 13.55523232 127.13120468 12.53160095 127.28897095 C8.65702681 127.85802063 4.91566348 128.19118802 1 128 C0 127 0 127 -0.12304783 124.8935461 C-0.12212604 123.95792623 -0.12120424 123.02230635 -0.12025452 122.05833435 C-0.12162918 120.98836212 -0.12300385 119.91838989 -0.12442017 118.81599426 C-0.12082489 117.63204575 -0.11722961 116.44809723 -0.11352539 115.22827148 C-0.11367142 113.989422 -0.11381744 112.75057251 -0.1139679 111.47418213 C-0.11338892 108.06730167 -0.10835959 104.66048116 -0.10139394 101.25361133 C-0.09515993 97.69683174 -0.09455656 94.14005142 -0.09336853 90.58326721 C-0.09025535 83.84363418 -0.08204215 77.10401729 -0.07201904 70.36439139 C-0.06085748 62.69341602 -0.05534735 55.02243989 -0.05032361 47.35145843 C-0.03985952 31.56762959 -0.02226035 15.78381687 0 0 Z " fill="#000203" transform="translate(447,656)"/>
<path d="M0 0 C8.8564701 5.256279 16.34686157 12.17683045 24 19 C24.74515869 19.65613281 25.49031738 20.31226562 26.25805664 20.98828125 C32.69837893 26.7043828 38.85475342 32.66853059 44.94116211 38.75585938 C46.55890192 40.3714068 48.18450636 41.97875034 49.81054688 43.5859375 C56.32700638 50.06767441 62.28848501 56.78545475 68 64 C68.93418679 65.12084395 69.87324181 66.23767732 70.8203125 67.34765625 C75.91084518 73.34413119 80.62968393 79.45899714 85 86 C84.67 86.66 84.34 87.32 84 88 C79.07726499 82.04409839 74.23862219 76.04001837 69.5 69.9375 C65.48090079 64.76484881 61.27689424 59.85399643 56.77734375 55.0859375 C55.10520617 53.12347273 54.02701399 51.35202168 53 49 C52.34 49 51.68 49 51 49 C49.765625 47.7421875 49.765625 47.7421875 48.25 45.875 C40.18221897 36.41216516 31.26553058 27.72326687 21.515625 20.01171875 C18.32282379 17.45846933 15.312927 14.72887332 12.28125 11.98828125 C8.92708275 9.06487178 5.40574474 6.36481562 1.87109375 3.6640625 C1.25363281 3.11492187 0.63617187 2.56578125 0 2 C0 1.34 0 0.68 0 0 Z " fill="#050C12" transform="translate(655,98)"/>
<path d="M0 0 C0 3.47764612 -0.5317178 4.04918713 -2.60546875 6.7109375 C-3.17040039 7.45029541 -3.73533203 8.18965332 -4.31738281 8.95141602 C-4.93452148 9.75119873 -5.55166016 10.55098145 -6.1875 11.375 C-13.82773066 21.5141984 -20.56214399 32.06501824 -27 43 C-27.44827148 43.76135254 -27.89654297 44.52270508 -28.35839844 45.30712891 C-37.54856273 61.06815632 -46.12426178 77.60069632 -52.09765625 94.8671875 C-53 97 -53 97 -55 98 C-53.64175633 90.3827153 -50.98047901 83.91762877 -47.6875 76.9375 C-47.15624512 75.80352783 -46.62499023 74.66955566 -46.07763672 73.5012207 C-36.83622717 54.01037084 -26.38062106 35.66440076 -14 18 C-13.57283691 17.38753418 -13.14567383 16.77506836 -12.70556641 16.14404297 C-8.74924034 10.4981231 -4.57977874 5.15225108 0 0 Z " fill="#050D13" transform="translate(129,188)"/>
<path d="M0 0 C1.26836736 3.56812583 0.72414831 5.60825795 -0.5546875 9.12109375 C-0.91763916 10.12857666 -1.28059082 11.13605957 -1.65454102 12.17407227 C-2.05729248 13.25100342 -2.46004395 14.32793457 -2.875 15.4375 C-3.28484131 16.55116943 -3.69468262 17.66483887 -4.11694336 18.81225586 C-10.14405531 34.99320287 -17.02769025 50.68792527 -25 66 C-25.37157227 66.7223584 -25.74314453 67.4447168 -26.12597656 68.18896484 C-30.35216228 76.40181693 -34.55678362 84.50757275 -40 92 C-40.66 91.67 -41.32 91.34 -42 91 C-41.64808594 90.38705078 -41.29617188 89.77410156 -40.93359375 89.14257812 C-33.93491988 76.92687713 -27.02488654 64.72841728 -21 52 C-20.48324707 50.92661377 -20.48324707 50.92661377 -19.95605469 49.83154297 C-13.24425266 35.82103245 -8.03228901 21.38534439 -3.00219727 6.70703125 C-2.13559749 4.36626187 -1.17090723 2.2006622 0 0 Z " fill="#09141A" transform="translate(757,525)"/>
<path d="M0 0 C4.57203661 3.6368473 8.53184246 7.60243484 12.4375 11.9375 C22.69733994 23.25705717 33.99018569 33.56615438 46 43 C47.0631778 43.85462623 48.12564203 44.71014071 49.1875 45.56640625 C58.18267533 52.77573668 67.53031164 59.43083362 77 66 C76.67 66.66 76.34 67.32 76 68 C61.12235379 58.41969751 47.22411116 47.74793131 34 36 C33.25645264 35.34475342 32.51290527 34.68950684 31.74682617 34.0144043 C25.29944433 28.28375121 19.14809711 22.29912248 13.0625 16.1875 C12.13115234 15.26001953 11.19980469 14.33253906 10.24023438 13.37695312 C9.34755859 12.48298828 8.45488281 11.58902344 7.53515625 10.66796875 C6.734729 9.86641357 5.93430176 9.0648584 5.10961914 8.23901367 C0 2.81599352 0 2.81599352 0 0 Z " fill="#060E13" transform="translate(141,659)"/>
<path d="M0 0 C3.90940838 0.01837358 7.81858003 0.02050817 11.72802734 0.02026367 C14.25016478 0.02517671 16.77230064 0.03100409 19.29443359 0.0378418 C20.44471039 0.03895462 21.59498718 0.04006744 22.78012085 0.04121399 C42.41915606 0.15489053 42.41915606 0.15489053 46.52099609 2.20581055 C46.52099609 2.86581055 46.52099609 3.52581055 46.52099609 4.20581055 C45.6455162 4.13475601 44.77003632 4.06370148 43.86802673 3.99049377 C33.77951574 3.23703835 23.76314773 3.07406783 13.64990234 3.1081543 C11.98982283 3.1100253 10.32974275 3.11144597 8.66966248 3.11244202 C4.35438442 3.11621352 0.03914141 3.12599622 -4.27612305 3.137146 C-8.70116706 3.14747724 -13.12621687 3.15196442 -17.55126953 3.15698242 C-26.19386352 3.16762476 -34.83642933 3.18463447 -43.47900391 3.20581055 C-43.47900391 2.87581055 -43.47900391 2.54581055 -43.47900391 2.20581055 C-28.99084655 0.05657557 -14.62671528 -0.07112903 0 0 Z " fill="#031117" transform="translate(409.47900390625,16.794189453125)"/>
<path d="M0 0 C0.99 0.495 0.99 0.495 2 1 C1.35933594 1.6290625 0.71867188 2.258125 0.05859375 2.90625 C-5.80227804 8.69510013 -5.80227804 8.69510013 -11.3125 14.8125 C-15.06131139 19.20549856 -19.16785775 23.22248487 -23.29418945 27.25708008 C-26.76771354 30.67615857 -29.93656688 34.20772033 -33 38 C-36.63907968 35.28852886 -40.26935873 32.57825615 -43.828125 29.76171875 C-52.52478625 22.9114592 -61.63622552 16.89861722 -71 11 C-70.01 10.67 -69.02 10.34 -68 10 C-65.72545875 11.205416 -63.68546948 12.44006445 -61.5625 13.875 C-60.94431396 14.28339111 -60.32612793 14.69178223 -59.68920898 15.11254883 C-51.05128196 20.88111455 -42.77569426 27.10790736 -35 34 C-30.6672817 32.3343808 -27.86477644 29.12550667 -24.6875 25.875 C-24.10500488 25.28605957 -23.52250977 24.69711914 -22.92236328 24.09033203 C-19.41778615 20.5230507 -16.06593314 16.86987302 -12.83203125 13.0546875 C-8.77164844 8.50082533 -4.34791766 4.27715589 0 0 Z " fill="#050D12" transform="translate(587,202)"/>
<path d="M0 0 C3.56952214 0.59136506 6.46816056 1.54181346 9.703125 3.15234375 C10.59177246 3.59344482 11.48041992 4.0345459 12.39599609 4.48901367 C13.33781738 4.96701416 14.27963867 5.44501465 15.25 5.9375 C16.23436035 6.43548096 17.2187207 6.93346191 18.23291016 7.4465332 C37.30418056 17.19259294 56.39115111 28.43970495 73 42 C72.505 42.99 72.505 42.99 72 44 C71.45214844 43.61070313 70.90429688 43.22140625 70.33984375 42.8203125 C52.50251287 30.23266762 34.26839874 18.28584106 14.58984375 8.7578125 C9.63663783 6.33241243 4.81244515 3.69170661 0 1 C0 0.67 0 0.34 0 0 Z " fill="#040B11" transform="translate(580,54)"/>
<path d="M0 0 C-19.19820281 10.39754792 -39.89103268 18.21225136 -60.81054688 24.35205078 C-62.2186978 24.76878055 -63.62177151 25.20329461 -65.01757812 25.65966797 C-68.4755482 26.76068124 -70.54886105 27.04683302 -74 26 C-68.76849811 24.0010891 -63.52570673 22.15849617 -58.1875 20.46875 C-40.20404695 14.69020457 -22.92318687 8.4927104 -6 0 C-3.50907189 -1.24546405 -2.58919267 -0.7767578 0 0 Z " fill="#08141B" transform="translate(573,748)"/>
<path d="M0 0 C0.66 0.33 1.32 0.66 2 1 C-3.95530764 8.71289127 -10.33227386 15.90796401 -17 23 C-17.58265625 23.63679687 -18.1653125 24.27359375 -18.765625 24.9296875 C-26.50944565 33.10372041 -36.05131746 39.73009973 -45.1875 46.25 C-46.23292969 46.99765625 -47.27835938 47.7453125 -48.35546875 48.515625 C-49.22816406 49.00546875 -50.10085938 49.4953125 -51 50 C-51.99 49.67 -52.98 49.34 -54 49 C-52.92363281 48.26136719 -51.84726562 47.52273438 -50.73828125 46.76171875 C-31.78758617 33.64955638 -13.69299194 18.73777844 0 0 Z " fill="#051015" transform="translate(575,519)"/>
<path d="M0 0 C-17.89553543 11.14026709 -43.42949086 23.91789401 -65 23 C-62.71122262 20.71122262 -61.61040244 20.49182273 -58.51171875 19.7734375 C-57.58818604 19.55059082 -56.66465332 19.32774414 -55.71313477 19.09814453 C-54.71467529 18.85950684 -53.71621582 18.62086914 -52.6875 18.375 C-37.03081019 14.4488726 -22.07416623 9.09702768 -7.88305664 1.35009766 C-3.30449958 -1.10149986 -3.30449958 -1.10149986 0 0 Z " fill="#0A161F" transform="translate(520,571)"/>
<path d="M0 0 C4.92966768 9.29648956 3.15837941 22.33824 3.13037109 32.70239258 C3.12499948 35.06272782 3.13035734 37.42287352 3.13671875 39.78320312 C3.1400392 48.23872747 2.90474357 56.58217515 2 65 C-0.33761804 61.49357293 -0.2438598 60.1114405 -0.22705078 55.96801758 C-0.22682419 54.10642754 -0.22682419 54.10642754 -0.22659302 52.20722961 C-0.2163798 50.8529952 -0.20594781 49.49876242 -0.1953125 48.14453125 C-0.19158167 46.75876571 -0.18873503 45.37299752 -0.18673706 43.98722839 C-0.17910608 40.3424652 -0.1594623 36.69786176 -0.1373291 33.05316162 C-0.11685908 29.33298911 -0.10773288 25.61279074 -0.09765625 21.89257812 C-0.07621581 14.5949793 -0.04208644 7.29751205 0 0 Z " fill="#121F28" transform="translate(811,381)"/>
<path d="M0 0 C0 0.33 0 0.66 0 1 C-3.3 1.33 -6.6 1.66 -10 2 C-10 2.33 -10 2.66 -10 3 C-24.52 3.33 -39.04 3.66 -54 4 C-54 3.67 -54 3.34 -54 3 C-49.59085217 1.89771304 -45.51617599 1.92345464 -41 2 C-41 1.34 -41 0.68 -41 0 C-27.26283461 -1.31726244 -13.73654762 -1.45690657 0 0 Z " fill="#174653" transform="translate(432,183)"/>
<path d="M0 0 C3.62798562 3.27343248 6.0147063 7.03357395 8.5 11.1875 C16.42460902 24.12719253 25.13316524 36.46377653 35 48 C34.34 48.66 33.68 49.32 33 50 C22.69557621 37.20060746 13.05443271 24.00567642 4.25 10.125 C3.81937256 9.45291504 3.38874512 8.78083008 2.94506836 8.08837891 C0 3.36139483 0 3.36139483 0 0 Z " fill="#081218" transform="translate(101,603)"/>
<path d="M0 0 C5.29945255 2.82968426 10.54974146 5.72597196 15.73828125 8.75390625 C25.38611818 14.36974336 35.02952119 19.66343856 45.22265625 24.23364258 C50.9029109 26.80582179 50.9029109 26.80582179 52 29 C47.51915704 28.34761673 43.68015442 26.67655913 39.625 24.75 C38.90328613 24.40864014 38.18157227 24.06728027 37.43798828 23.71557617 C30.77918697 20.49648067 24.31751431 16.94188256 17.875 13.3125 C16.90385254 12.76625977 15.93270508 12.22001953 14.93212891 11.65722656 C9.74208487 8.6953454 4.69251326 5.71111505 0 2 C0 1.34 0 0.68 0 0 Z " fill="#061016" transform="translate(219,726)"/>
<path d="M0 0 C0 0.99 0 1.98 0 3 C-1.46191406 4.29931641 -1.46191406 4.29931641 -3.515625 5.6015625 C-4.64194336 6.33004395 -4.64194336 6.33004395 -5.79101562 7.07324219 C-6.60248047 7.58532227 -7.41394531 8.09740234 -8.25 8.625 C-9.91315524 9.70311593 -11.57461155 10.78385717 -13.234375 11.8671875 C-14.05099609 12.39924805 -14.86761719 12.93130859 -15.70898438 13.47949219 C-23.44759979 18.61547863 -30.68488935 24.46503372 -37.84375 30.37109375 C-39.83452023 31.87499082 -41.73297549 32.97468664 -44 34 C-42.43757151 29.67795757 -39.12717646 27.35618849 -35.625 24.625 C-34.65143555 23.85639648 -34.65143555 23.85639648 -33.65820312 23.07226562 C-22.96999027 14.74365823 -11.8954698 6.52332215 0 0 Z " fill="#071117" transform="translate(198,77)"/>
<path d="M0 0 C0.8559375 0.00902344 1.711875 0.01804687 2.59375 0.02734375 C3.2228125 0.03894531 3.851875 0.05054687 4.5 0.0625 C0.76583245 2.32349994 -3.20885635 2.84178793 -7.44921875 3.5 C-8.22127151 3.62560303 -8.99332428 3.75120605 -9.78877258 3.88061523 C-12.25406556 4.28075458 -14.72064425 4.67212134 -17.1875 5.0625 C-19.63625884 5.45422404 -22.08467987 5.84787893 -24.53266907 6.24438477 C-26.05267093 6.49014673 -27.5731422 6.73303078 -29.09416199 6.97241211 C-33.65554404 7.70463935 -38.07996662 8.66199688 -42.54109192 9.87084961 C-44.5 10.0625 -44.5 10.0625 -47.5 8.0625 C-42.80520339 7.07982364 -38.10955032 6.10138355 -33.41308594 5.12670898 C-31.81844782 4.79516494 -30.22404172 4.46250276 -28.62988281 4.12866211 C-26.32678666 3.64656845 -24.0228616 3.16862007 -21.71875 2.69140625 C-21.01633179 2.54345108 -20.31391357 2.39549591 -19.59020996 2.24305725 C-13.0997966 0.90632927 -6.64794343 -0.09233255 0 0 Z " fill="#0B1820" transform="translate(359.5,19.9375)"/>
<path d="M0 0 C-8.47165992 8.47165992 -35.85217065 8.11955059 -47.30688477 8.2043457 C-50.20663763 8.18141882 -53.10242045 8.11354811 -56 8 C-56 7.67 -56 7.34 -56 7 C-55.09459473 6.89453857 -54.18918945 6.78907715 -53.25634766 6.68041992 C-49.04535221 6.1872909 -44.83495383 5.68943624 -40.625 5.1875 C-39.87101929 5.09762817 -39.11703857 5.00775635 -38.34020996 4.91516113 C-28.90867421 3.78482948 -19.51065432 2.5951013 -10.16650391 0.86401367 C-6.72721585 0.23366894 -3.49857113 -0.13353325 0 0 Z " fill="#030A0F" transform="translate(497,818)"/>
<path d="M0 0 C4.62239198 -0.02502961 9.24474308 -0.04301321 13.8671875 -0.05493164 C15.4342518 -0.059909 17.00131158 -0.06669329 18.56835938 -0.07543945 C43.57728495 -0.21135753 43.57728495 -0.21135753 48 2 C48 2.66 48 3.32 48 4 C24.24 2.515 24.24 2.515 0 1 C0 0.67 0 0.34 0 0 Z " fill="#0D1820" transform="translate(408,17)"/>
<path d="M0 0 C1.92854601 2.89281902 2.70662691 4.96041868 3.65625 8.26171875 C4.10677734 9.81729492 4.10677734 9.81729492 4.56640625 11.40429688 C5.02853516 13.02948242 5.02853516 13.02948242 5.5 14.6875 C5.80808594 15.75162109 6.11617187 16.81574219 6.43359375 17.91210938 C11.29930058 34.8167861 11.29930058 34.8167861 11 42 C8.84331328 38.76496992 8.09670827 36.20552551 7.08984375 32.4609375 C6.91747696 31.82064606 6.74511017 31.18035461 6.56752014 30.5206604 C6.20425185 29.16474576 5.84383923 27.80806326 5.48608398 26.45068359 C4.94432095 24.40080849 4.38983257 22.354688 3.83398438 20.30859375 C2.02219911 13.54711137 0.50179434 6.99424104 0 0 Z " fill="#0A161C" transform="translate(792,287)"/>
<path d="M0 0 C0.66 0.33 1.32 0.66 2 1 C1.30962646 1.68513672 0.61925293 2.37027344 -0.09204102 3.07617188 C-2.68712127 5.65295983 -5.27873292 8.23321362 -7.86938477 10.81445312 C-8.9846729 11.92475584 -10.10086211 13.03415429 -11.21801758 14.14257812 C-16.91646139 19.79763925 -22.57037807 25.41343264 -27.71069336 31.59179688 C-29 33 -29 33 -31 34 C-28.79817945 29.2328508 -25.52268225 25.85131218 -22 22 C-21.22390381 21.14825195 -21.22390381 21.14825195 -20.43212891 20.27929688 C-7.04525558 5.62307666 -7.04525558 5.62307666 0 0 Z " fill="#01080E" transform="translate(166,148)"/>
<path d="M0 0 C0.33 0.99 0.66 1.98 1 3 C-0.54818399 5.36781081 -2.1296895 7.53473299 -3.875 9.75 C-7.89295984 15.02551395 -11.61662465 20.3570879 -15 26.0625 C-15.36077637 26.66868164 -15.72155273 27.27486328 -16.09326172 27.89941406 C-18.21909459 31.52731437 -20.1590849 35.22037118 -22 39 C-22.69921875 37.38671875 -22.69921875 37.38671875 -23 35 C-21.76953125 32.14453125 -21.76953125 32.14453125 -19.8125 28.8125 C-19.46098877 28.2138916 -19.10947754 27.6152832 -18.74731445 26.99853516 C-13.11507615 17.61587182 -6.61295277 8.7119446 0 0 Z " fill="#0A141A" transform="translate(252,260)"/>
<path d="M0 0 C1.485 0.495 1.485 0.495 3 1 C1.33424841 2.52183555 -0.33265671 4.0424085 -2 5.5625 C-2.50619873 6.02430664 -3.01239746 6.48611328 -3.53393555 6.96191406 C-6.25605877 9.43853275 -9.00519099 11.8708209 -11.8125 14.25 C-18.21397424 19.79257623 -24.05414963 25.97899141 -30 32 C-30 29 -30 29 -27.99975586 26.64331055 C-26.62122437 25.27879761 -26.62122437 25.27879761 -25.21484375 23.88671875 C-24.72093643 23.3946846 -24.22702911 22.90265045 -23.71815491 22.39570618 C-22.66820814 21.35248924 -21.61466625 20.31288019 -20.55786133 19.27661133 C-18.96126815 17.71080977 -17.37524822 16.13493698 -15.79101562 14.55664062 C-4.62301217 3.46879399 -4.62301217 3.46879399 0 0 Z " fill="#000105" transform="translate(150,112)"/>
<path d="M0 0 C0.66 0 1.32 0 2 0 C1.60167969 1.18464844 1.20335937 2.36929687 0.79296875 3.58984375 C-1.42046518 10.23014553 -3.54998061 16.89747225 -5.6875 23.5625 C-6.10737621 24.87045737 -6.52729776 26.17840018 -6.94726562 27.48632812 C-7.96528814 30.65740975 -8.98285459 33.82863695 -10 37 C-10.33 37 -10.66 37 -11 37 C-10.52097832 28.98494078 -8.21084392 22.0865606 -5.5 14.5625 C-5.08363281 13.37978516 -4.66726562 12.19707031 -4.23828125 10.97851562 C-1.21243579 2.42487158 -1.21243579 2.42487158 0 0 Z " fill="#061015" transform="translate(38,271)"/>
<path d="M0 0 C-1.65727519 4.34902788 -4.91132699 7.09173435 -8.1875 10.25 C-12.57752722 14.54752286 -16.80293119 18.87644366 -20.73046875 23.609375 C-22 25 -22 25 -24 26 C-22.75513346 21.43548937 -20.24371992 19.05339453 -16.9296875 15.890625 C-14.98534297 13.98563967 -13.21047598 12.00203203 -11.4375 9.9375 C-2.83662281 0 -2.83662281 0 0 0 Z " fill="#0F1F27" transform="translate(226,206)"/>
<path d="M0 0 C11.34867461 5.6743373 21.34490856 13.8314623 31 22 C30.01 22.33 29.02 22.66 28 23 C26.5546875 21.98828125 26.5546875 21.98828125 24.875 20.3125 C20.59189778 16.34279551 15.9642474 13.02680491 11.1875 9.6875 C10.43388184 9.16003174 9.68026367 8.63256348 8.90380859 8.08911133 C5.95267467 6.03206954 2.99326188 3.99550792 0 2 C0 1.34 0 0.68 0 0 Z " fill="#051017" transform="translate(556,177)"/>
<path d="M0 0 C0.66 0.33 1.32 0.66 2 1 C-4.50824404 9.4290152 -11.46720246 17.46720246 -19 25 C-19.99 24.67 -20.98 24.34 -22 24 C-21.0821875 23.10539063 -20.164375 22.21078125 -19.21875 21.2890625 C-12.32200661 14.51255653 -5.7725816 7.78043606 0 0 Z " fill="#071219" transform="translate(575,519)"/>
<path d="M0 0 C4.68677562 2.49902078 8.24582237 5.80897883 12.0625 9.4375 C13.03908569 10.35716553 13.03908569 10.35716553 14.03540039 11.29541016 C20.14464233 17.07637432 26.10266087 23.00382278 32 29 C31.67 29.66 31.34 30.32 31 31 C30.52691406 30.52167725 30.05382812 30.04335449 29.56640625 29.55053711 C27.38035594 27.3434466 25.19020871 25.14046367 23 22.9375 C22.25621094 22.18533203 21.51242187 21.43316406 20.74609375 20.65820312 C14.93395745 14.82079666 8.92033146 9.34656146 2.5 4.1875 C1.675 3.465625 0.85 2.74375 0 2 C0 1.34 0 0.68 0 0 Z " fill="#034854" transform="translate(674,116)"/>
<path d="M0 0 C0.66 0 1.32 0 2 0 C2.54527344 1.00417969 3.09054688 2.00835938 3.65234375 3.04296875 C8.62152667 12.09036998 13.9429535 20.63755282 20 29 C19.01 29 18.02 29 17 29 C12.25333615 23.77375094 8.79313374 17.1487014 5.125 11.125 C4.7316748 10.48296631 4.33834961 9.84093262 3.93310547 9.17944336 C2.14070358 6.18489743 0.54233012 3.48140947 0 0 Z " fill="#060F15" transform="translate(173,518)"/>
<path d="M0 0 C0.99 0.495 0.99 0.495 2 1 C3.02044771 4.23281525 3.51348597 7.60588095 4.125 10.9375 C4.30675781 11.85080078 4.48851562 12.76410156 4.67578125 13.70507812 C5.83592826 19.86781395 6.22961012 25.73504529 6 32 C3.50468749 27.44354108 2.81579359 22.75036329 1.875 17.6875 C1.69324219 16.76259766 1.51148438 15.83769531 1.32421875 14.88476562 C0.36907368 9.83255092 -0.21270482 5.14036646 0 0 Z " fill="#0A171D" transform="translate(803,330)"/>
<path d="M0 0 C-6.51223296 3.64685046 -13.9131304 4.62757706 -21.1875 5.75 C-22.52071289 5.97623047 -22.52071289 5.97623047 -23.88085938 6.20703125 C-24.73873047 6.33980469 -25.59660156 6.47257813 -26.48046875 6.609375 C-27.63905396 6.7945166 -27.63905396 6.7945166 -28.82104492 6.98339844 C-31.39331152 7.00299666 -32.81385468 6.30391838 -35 5 C-31.14198294 4.27994916 -27.28253299 3.56819129 -23.42163086 2.86376953 C-21.46974988 2.50591268 -19.5190411 2.14168107 -17.56835938 1.77734375 C-15.70727539 1.43896484 -15.70727539 1.43896484 -13.80859375 1.09375 C-12.67220459 0.88427734 -11.53581543 0.67480469 -10.36499023 0.45898438 C-6.8688956 -0.01788263 -3.52400923 -0.07835485 0 0 Z " fill="#0D1B25" transform="translate(498,775)"/>
<path d="M0 0 C3.36335594 1.45745424 5.54534005 3.31117854 8.109375 5.9140625 C8.86347656 6.67460938 9.61757812 7.43515625 10.39453125 8.21875 C11.17183594 9.0128125 11.94914063 9.806875 12.75 10.625 C13.54277344 11.42679688 14.33554688 12.22859375 15.15234375 13.0546875 C17.10614493 15.03202846 19.05512103 17.01388909 21 19 C20.67 19.66 20.34 20.32 20 21 C14.95052004 16.78219909 10.17768642 12.30966492 5.5 7.6875 C4.68934082 6.89617676 4.68934082 6.89617676 3.86230469 6.08886719 C2.53486529 4.76484242 1.26222067 3.38633903 0 2 C0 1.34 0 0.68 0 0 Z " fill="#0B1720" transform="translate(121,699)"/>
<path d="M0 0 C2.02133576 3.03200363 2.88449999 5.44422119 3.9453125 8.91015625 C4.29980469 10.06451172 4.65429688 11.21886719 5.01953125 12.40820312 C5.38433594 13.61412109 5.74914062 14.82003906 6.125 16.0625 C6.68380859 17.87717773 6.68380859 17.87717773 7.25390625 19.72851562 C10 28.72624771 10 28.72624771 10 31 C9.34 31 8.68 31 8 31 C-0.15079869 9.39260417 -0.15079869 9.39260417 0 0 Z " fill="#0B171E" transform="translate(209,434)"/>
<path d="M0 0 C0 0.99 0 1.98 0 3 C-3.39276306 4.96368878 -6.78972718 6.91999444 -10.1875 8.875 C-11.14720703 9.43058594 -12.10691406 9.98617187 -13.09570312 10.55859375 C-14.02705078 11.09355469 -14.95839844 11.62851562 -15.91796875 12.1796875 C-16.77156982 12.67194824 -17.6251709 13.16420898 -18.50463867 13.67138672 C-20.95295377 14.97495102 -23.40687767 16.02123339 -26 17 C-24.73706381 13.21119143 -23.65595498 12.98146947 -20.1953125 11.15234375 C-19.21949219 10.62962891 -18.24367188 10.10691406 -17.23828125 9.56835938 C-15.69720703 8.76108398 -15.69720703 8.76108398 -14.125 7.9375 C-12.10622475 6.86430785 -10.08797232 5.79013149 -8.0703125 4.71484375 C-7.17070801 4.24167725 -6.27110352 3.76851074 -5.34423828 3.28100586 C-2.8431288 1.95881365 -2.8431288 1.95881365 0 0 Z " fill="#071016" transform="translate(600,730)"/>
<path d="M0 0 C0 4.10746566 -1.63960436 5.19754861 -4.375 8.1875 C-5.18710938 9.08855469 -5.99921875 9.98960937 -6.8359375 10.91796875 C-9 13 -9 13 -11 13 C-11.20625 13.556875 -11.4125 14.11375 -11.625 14.6875 C-13.55000774 17.92501302 -16.03850902 19.68231141 -19 22 C-17.37165468 18.04274219 -14.63881189 15.19806084 -11.75 12.125 C-11.25781982 11.59487305 -10.76563965 11.06474609 -10.25854492 10.51855469 C-6.91571103 6.93273584 -3.51395836 3.41898651 0 0 Z " fill="#034C57" transform="translate(224,209)"/>
<path d="M0 0 C1.11328125 1.51171875 1.11328125 1.51171875 2 4 C1.520229 6.71288693 0.95225912 9.18318533 0.1875 11.8125 C-1.22534881 16.87877602 -2.36452899 21.77273847 -3 27 C-5.40258293 23.39612561 -5.0828979 22.67675259 -4.3125 18.5625 C-4.11527344 17.50675781 -3.91804687 16.45101563 -3.71484375 15.36328125 C-2.61837258 10.20447425 -1.35543081 5.09641986 0 0 Z " fill="#0F1E26" transform="translate(151,327)"/>
<path d="M0 0 C0.66 0.33 1.32 0.66 2 1 C0.98679688 2.30324219 0.98679688 2.30324219 -0.046875 3.6328125 C-0.94802172 4.79679368 -1.84905747 5.96086077 -2.75 7.125 C-3.1934375 7.69476563 -3.636875 8.26453125 -4.09375 8.8515625 C-6.89318159 12.47435632 -9.50346654 16.16187146 -12 20 C-12.33 19.01 -12.66 18.02 -13 17 C-11.49687987 14.53819695 -9.97345426 12.29793901 -8.25 10 C-7.79367188 9.3709375 -7.33734375 8.741875 -6.8671875 8.09375 C-4.7321751 5.18124753 -2.60264185 2.51367882 0 0 Z " fill="#070F14" transform="translate(200,233)"/>
<path d="M0 0 C-2.71230118 2.71230118 -5.61408011 2.9791586 -9.25 3.6875 C-9.90613281 3.82994141 -10.56226563 3.97238281 -11.23828125 4.11914062 C-15.44859701 4.96036674 -18.82244422 4.96654629 -23 4 C-23 3.67 -23 3.34 -23 3 C-20.10496617 2.49494737 -17.20912047 1.9957978 -14.3125 1.5 C-13.08756836 1.28537109 -13.08756836 1.28537109 -11.83789062 1.06640625 C-7.85021752 0.38834038 -4.06269596 -0.19858392 0 0 Z " fill="#0B1820" transform="translate(497,818)"/>
<path d="M0 0 C0.474375 0.66 0.94875 1.32 1.4375 2 C2.2109375 2.99 2.2109375 2.99 3 4 C3.33 4 3.66 4 4 4 C3.67 9.94 3.34 15.88 3 22 C2.67 22 2.34 22 2 22 C0.71702277 14.58851545 -0.25515919 7.52719602 0 0 Z " fill="#084651" transform="translate(806,354)"/>
<path d="M0 0 C-2.20452542 1.29855607 -4.41323296 2.58888195 -6.625 3.875 C-7.24246094 4.23980469 -7.85992188 4.60460937 -8.49609375 4.98046875 C-12.24106836 7.14861194 -15.81827217 8.77764879 -20 10 C-20.33 9.34 -20.66 8.68 -21 8 C-18.0707161 6.46293927 -15.13042886 4.94824838 -12.1875 3.4375 C-11.35412109 2.99986328 -10.52074219 2.56222656 -9.66210938 2.11132812 C-8.45844727 1.49741211 -8.45844727 1.49741211 -7.23046875 0.87109375 C-6.49207764 0.48880615 -5.75368652 0.10651855 -4.99291992 -0.28735352 C-3 -1 -3 -1 0 0 Z " fill="#06141B" transform="translate(520,571)"/>
<path d="M0 0 C0.33 0.99 0.66 1.98 1 3 C-0.35209473 5.63086546 -1.74300308 8.06782595 -3.3125 10.5625 C-3.93801758 11.59020508 -3.93801758 11.59020508 -4.57617188 12.63867188 C-6.25093687 15.36049887 -7.73090488 17.73090488 -10 20 C-10.33 19.34 -10.66 18.68 -11 18 C-9.8230753 15.62831842 -8.59997969 13.3950001 -7.25 11.125 C-6.8890625 10.49980469 -6.528125 9.87460938 -6.15625 9.23046875 C-4.27468591 6.00590421 -2.32227094 2.92488555 0 0 Z " fill="#0A141C" transform="translate(106,220)"/>
<path d="M0 0 C4.50703648 1.50234549 6.41112851 5.11309355 8.8125 8.9375 C9.23208984 9.57107422 9.65167969 10.20464844 10.08398438 10.85742188 C11.14420878 12.51849833 12.08160364 14.2564981 13 16 C12.67 16.99 12.34 17.98 12 19 C9.99629574 16.02330902 7.99766337 13.0432477 6 10.0625 C5.42765625 9.21236328 4.8553125 8.36222656 4.265625 7.48632812 C3.45351563 6.27299805 3.45351563 6.27299805 2.625 5.03515625 C2.12226562 4.2862915 1.61953125 3.53742676 1.1015625 2.76586914 C0 1 0 1 0 0 Z " fill="#050F13" transform="translate(740,187)"/>
<path d="M0 0 C0.66 0.99 1.32 1.98 2 3 C1.58105469 3.34675781 1.16210938 3.69351563 0.73046875 4.05078125 C-1.69156216 6.77898311 -3.1207307 9.92639563 -4.6875 13.1875 C-5.16799805 14.16879883 -5.16799805 14.16879883 -5.65820312 15.16992188 C-6.44428292 16.77727907 -7.22288683 18.38828858 -8 20 C-9 17 -9 17 -8.28735352 15.09887695 C-7.71392212 14.05413208 -7.71392212 14.05413208 -7.12890625 12.98828125 C-6.51499023 11.85229492 -6.51499023 11.85229492 -5.88867188 10.69335938 C-5.45103516 9.90767578 -5.01339844 9.12199219 -4.5625 8.3125 C-4.12873047 7.51521484 -3.69496094 6.71792969 -3.24804688 5.89648438 C-2.17425237 3.92589446 -1.09135818 1.96090073 0 0 Z " fill="#024954" transform="translate(60,227)"/>
<path d="M0 0 C0.66 0.33 1.32 0.66 2 1 C-1.50558721 4.55685722 -5.10553239 7.96283047 -8.8125 11.3125 C-9.78832031 12.19550781 -10.76414062 13.07851563 -11.76953125 13.98828125 C-12.50558594 14.65214844 -13.24164062 15.31601562 -14 16 C-14 13 -14 13 -12.71484375 11.46606445 C-12.12832031 10.937146 -11.54179688 10.40822754 -10.9375 9.86328125 C-10.30585937 9.28642578 -9.67421875 8.70957031 -9.0234375 8.11523438 C-8.35570312 7.52033203 -7.68796875 6.92542969 -7 6.3125 C-6.33226562 5.70599609 -5.66453125 5.09949219 -4.9765625 4.47460938 C-3.32416555 2.97564929 -1.66526594 1.48463014 0 0 Z " fill="#030A0E" transform="translate(658,685)"/>
<path d="M0 0 C0.66 0.33 1.32 0.66 2 1 C1.525625 1.7425 1.05125 2.485 0.5625 3.25 C-1.0927841 5.78108625 -1.0927841 5.78108625 -1.3125 8.0625 C-2.44921323 11.26596455 -5.18700025 12.32417036 -8 14 C-6.6744419 10.37723685 -5.05653045 7.36494652 -2.875 4.1875 C-2.33617187 3.39730469 -1.79734375 2.60710937 -1.2421875 1.79296875 C-0.83226562 1.20128906 -0.42234375 0.60960937 0 0 Z " fill="#04171E" transform="translate(585,504)"/>
<path d="M0 0 C0.66 0.33 1.32 0.66 2 1 C-1.96 5.62 -5.92 10.24 -10 15 C-10.33 14.01 -10.66 13.02 -11 12 C-7.37 8.04 -3.74 4.08 0 0 Z " fill="#061116" transform="translate(721,678)"/>
<path d="M0 0 C5.852795 0.51482919 11.3297637 1.45357192 17 3 C17 3.33 17 3.66 17 4 C11.555 4.495 11.555 4.495 6 5 C5.67 4.34 5.34 3.68 5 3 C3.35636866 2.27840576 1.68949614 1.60648579 0 1 C0 0.67 0 0.34 0 0 Z " fill="#041921" transform="translate(365,590)"/>
<path d="M0 0 C0.66 0.33 1.32 0.66 2 1 C-6.60757813 9.99203572 -6.60757813 9.99203572 -11 12 C-11.99 12 -12.98 12 -14 12 C-4.58997722 3.55353075 -4.58997722 3.55353075 0 0 Z " fill="#034B57" transform="translate(247,189)"/>
<path d="M0 0 C0.66 0 1.32 0 2 0 C0.41332422 3.90285767 -2.13350481 6.33520982 -5.125 9.25 C-6.03507813 10.14203125 -6.94515625 11.0340625 -7.8828125 11.953125 C-8.58148437 12.62859375 -9.28015625 13.3040625 -10 14 C-10.66 13.67 -11.32 13.34 -12 13 C-11.38511719 12.39671875 -10.77023437 11.7934375 -10.13671875 11.171875 C-9.32847656 10.37265625 -8.52023437 9.5734375 -7.6875 8.75 C-6.88699219 7.96109375 -6.08648438 7.1721875 -5.26171875 6.359375 C-2.99268674 4.09923596 -2.99268674 4.09923596 -1.33203125 1.703125 C-0.89246094 1.14109375 -0.45289063 0.5790625 0 0 Z " fill="#020911" transform="translate(612,572)"/>
<path d="M0 0 C1.77433812 0.93084971 3.54435149 1.86994613 5.3125 2.8125 C6.29863281 3.33457031 7.28476562 3.85664062 8.30078125 4.39453125 C10.61665068 5.7719876 12.23611001 6.99530591 14 9 C10.06025045 9 8.17063907 7.52210525 4.8125 5.5 C3.72582031 4.8503125 2.63914062 4.200625 1.51953125 3.53125 C0.68808594 3.0259375 -0.14335938 2.520625 -1 2 C-0.67 1.34 -0.34 0.68 0 0 Z " fill="#09141C" transform="translate(618,73)"/>
<path d="M0 0 C0.66 0.33 1.32 0.66 2 1 C-1.96 6.94 -1.96 6.94 -6 13 C-6.66 12.34 -7.32 11.68 -8 11 C-5.36 7.37 -2.72 3.74 0 0 Z " fill="#08131A" transform="translate(714,618)"/>
<path d="M0 0 C0.66 0.33 1.32 0.66 2 1 C-1.63 4.96 -5.26 8.92 -9 13 C-9 9.26130751 -8.09514308 8.63449295 -5.625 5.9375 C-4.99851563 5.24527344 -4.37203125 4.55304688 -3.7265625 3.83984375 C-2.50602933 2.53923035 -1.26120903 1.26120903 0 0 Z " fill="#060E13" transform="translate(212,219)"/>
<path d="M0 0 C3.96 0 7.92 0 12 0 C12 0.66 12 1.32 12 2 C12.66 2.33 13.32 2.66 14 3 C8.78020872 3.1799928 4.92737019 2.97094808 0 1 C0 0.67 0 0.34 0 0 Z " fill="#0A252E" transform="translate(347,650)"/>
<path d="M0 0 C4.44006916 3.61783413 6.98488028 8.71836201 9 14 C8.67 14.66 8.34 15.32 8 16 C4.69811044 13.79874029 4.49651603 13.2881545 3.4375 9.6875 C2.42573725 6.38595839 1.33698997 3.18820685 0 0 Z " fill="#034C57" transform="translate(757,215)"/>
<path d="M0 0 C0 0.66 0 1.32 0 2 C-1.73696562 3.5830205 -3.54056497 5.09353724 -5.375 6.5625 C-6.37273437 7.36816406 -7.37046875 8.17382812 -8.3984375 9.00390625 C-11 11 -11 11 -13 12 C-11.50198648 8.38522825 -9.42462583 6.31379537 -6.5 3.75 C-5.7059375 3.04359375 -4.911875 2.3371875 -4.09375 1.609375 C-2 0 -2 0 0 0 Z " fill="#040A11" transform="translate(239,195)"/>
<path d="M0 0 C0.99 0.33 1.98 0.66 3 1 C-0.63 4.3 -4.26 7.6 -8 11 C-8.66 10.34 -9.32 9.68 -10 9 C-6.7 6.03 -3.4 3.06 0 0 Z " fill="#040F15" transform="translate(150,112)"/>
<path d="M0 0 C0.33 0.99 0.66 1.98 1 3 C-2.63 5.31 -6.26 7.62 -10 10 C-10 9.01 -10 8.02 -10 7 C-7.8125 5.17578125 -7.8125 5.17578125 -5 3.3125 C-3.6078125 2.37857422 -3.6078125 2.37857422 -2.1875 1.42578125 C-1.1046875 0.72001953 -1.1046875 0.72001953 0 0 Z " fill="#0C191E" transform="translate(613,721)"/>
<path d="M0 0 C2.99220268 1.36370299 5.29026529 2.94908083 7.75 5.125 C8.67039063 5.93324219 8.67039063 5.93324219 9.609375 6.7578125 C10.06828125 7.16773438 10.5271875 7.57765625 11 8 C10.34 8.66 9.68 9.32 9 10 C7.49410612 8.71520959 5.99542625 7.42195918 4.5 6.125 C3.6646875 5.40570312 2.829375 4.68640625 1.96875 3.9453125 C1.3190625 3.30335938 0.669375 2.66140625 0 2 C0 1.34 0 0.68 0 0 Z " fill="#0C1A21" transform="translate(176,694)"/>
<path d="M0 0 C7.48291572 6.15034169 7.48291572 6.15034169 10 10 C7 10 7 10 5.17578125 8.3203125 C4.56089844 7.59585938 3.94601563 6.87140625 3.3125 6.125 C2.68988281 5.40570312 2.06726563 4.68640625 1.42578125 3.9453125 C0 2 0 2 0 0 Z " fill="#09151D" transform="translate(141,659)"/>
<path d="M0 0 C0.66 0.33 1.32 0.66 2 1 C0.515 7.435 0.515 7.435 -1 14 C-1.66 13.34 -2.32 12.68 -3 12 C-2.79296875 9.94140625 -2.79296875 9.94140625 -2.1875 7.5625 C-1.99542969 6.78003906 -1.80335937 5.99757813 -1.60546875 5.19140625 C-1.12308568 3.44549076 -0.57279266 1.71837798 0 0 Z " fill="#0A1920" transform="translate(66,306)"/>
<path d="M0 0 C2.3828125 -0.29296875 2.3828125 -0.29296875 5.125 -0.1875 C6.03507812 -0.16042969 6.94515625 -0.13335937 7.8828125 -0.10546875 C8.58148438 -0.07066406 9.28015625 -0.03585938 10 0 C10.33 0.66 10.66 1.32 11 2 C4.565 2.495 4.565 2.495 -2 3 C-1.34 2.01 -0.68 1.02 0 0 Z " fill="#0B4451" transform="translate(435,184)"/>
<path d="M0 0 C0.99 0.33 1.98 0.66 3 1 C0.03 3.64 -2.94 6.28 -6 9 C-6.66 8.34 -7.32 7.68 -8 7 C-6.74057614 5.80040625 -5.46704714 4.61560557 -4.1875 3.4375 C-3.12595703 2.44556641 -3.12595703 2.44556641 -2.04296875 1.43359375 C-1.36878906 0.96050781 -0.69460938 0.48742187 0 0 Z " fill="#0A181E" transform="translate(285,227)"/>
<path d="M0 0 C-1.24176695 0.70226141 -2.49385599 1.38629109 -3.75 2.0625 C-4.79414062 2.63677734 -4.79414062 2.63677734 -5.859375 3.22265625 C-8.36140628 4.1312406 -9.5332355 3.88336837 -12 3 C-10.75823305 2.29773859 -9.50614401 1.61370891 -8.25 0.9375 C-7.20585938 0.36322266 -7.20585938 0.36322266 -6.140625 -0.22265625 C-3.63859372 -1.1312406 -2.4667645 -0.88336837 0 0 Z " fill="#0A1820" transform="translate(573,748)"/>
<path d="M0 0 C3.15330554 0.60694155 5.18888867 1.6416665 7.75 3.5625 C8.67039062 4.24505859 8.67039062 4.24505859 9.609375 4.94140625 C10.29773438 5.46541016 10.29773438 5.46541016 11 6 C10.67 6.66 10.34 7.32 10 8 C8.33055479 6.85821872 6.6645052 5.71147095 5 4.5625 C4.071875 3.92441406 3.14375 3.28632812 2.1875 2.62890625 C1.465625 2.09136719 0.74375 1.55382812 0 1 C0 0.67 0 0.34 0 0 Z " fill="#030F14" transform="translate(287,554)"/>
<path d="M0 0 C0.66 0.33 1.32 0.66 2 1 C-0.475 5.455 -0.475 5.455 -3 10 C-3.99 9.67 -4.98 9.34 -6 9 C-4.02 6.03 -2.04 3.06 0 0 Z " fill="#09141A" transform="translate(184,255)"/>
<path d="M0 0 C0.66 0.66 1.32 1.32 2 2 C-0.31 4.31 -2.62 6.62 -5 9 C-5.33 8.01 -5.66 7.02 -6 6 C-4.02 4.02 -2.04 2.04 0 0 Z " fill="#0A1E2A" transform="translate(576,213)"/>
<path d="M0 0 C3.99500618 1.3697164 6.80009492 3.25722422 10 6 C9.01 6.495 9.01 6.495 8 7 C6.0546875 6.07421875 6.0546875 6.07421875 3.875 4.6875 C2.78832031 4.01267578 2.78832031 4.01267578 1.6796875 3.32421875 C1.12539062 2.88722656 0.57109375 2.45023438 0 2 C0 1.34 0 0.68 0 0 Z " fill="#0C1921" transform="translate(189,757)"/>
<path d="M0 0 C0.66 0 1.32 0 2 0 C3.5078125 1.96875 3.5078125 1.96875 5.125 4.5 C5.66382813 5.3353125 6.20265625 6.170625 6.7578125 7.03125 C7.16773438 7.6809375 7.57765625 8.330625 8 9 C7.01 9 6.02 9 5 9 C3.61328125 7.5390625 3.61328125 7.5390625 2.3125 5.625 C1.65701172 4.68527344 1.65701172 4.68527344 0.98828125 3.7265625 C0 2 0 2 0 0 Z " fill="#060C0F" transform="translate(706,204)"/>
<path d="M0 0 C0.99 0.33 1.98 0.66 3 1 C-0.96 4.465 -0.96 4.465 -5 8 C-5 5 -5 5 -2.5 2.3125 C-1.675 1.549375 -0.85 0.78625 0 0 Z " fill="#030D14" transform="translate(552,544)"/>
<path d="M0 0 C3.96 1.98 3.96 1.98 8 4 C8 4.99 8 5.98 8 7 C6.66144944 6.21718695 5.32926356 5.42348123 4 4.625 C3.2575 4.18414063 2.515 3.74328125 1.75 3.2890625 C1.1725 2.86367188 0.595 2.43828125 0 2 C0 1.34 0 0.68 0 0 Z " fill="#030E17" transform="translate(299,561)"/>
<path d="M0 0 C0.66 0.99 1.32 1.98 2 3 C1.5390625 5.04296875 1.5390625 5.04296875 0.625 7.1875 C0.32851562 7.90292969 0.03203125 8.61835938 -0.2734375 9.35546875 C-0.51320312 9.89816406 -0.75296875 10.44085938 -1 11 C-1.66 10.01 -2.32 9.02 -3 8 C-2.5390625 5.95703125 -2.5390625 5.95703125 -1.625 3.8125 C-1.32851562 3.09707031 -1.03203125 2.38164062 -0.7265625 1.64453125 C-0.36691406 0.83048828 -0.36691406 0.83048828 0 0 Z " fill="#0D1B25" transform="translate(161,298)"/>
<path d="M0 0 C0.66 0.66 1.32 1.32 2 2 C-0.31 4.31 -2.62 6.62 -5 9 C-5 4.61031544 -2.87194899 3.23094261 0 0 Z " fill="#070F14" transform="translate(141,173)"/>
<path d="M0 0 C-2.93127462 1.95418308 -4.55834679 2.64700993 -8 3 C-8.66 2.34 -9.32 1.68 -10 1 C-3.375 -1.125 -3.375 -1.125 0 0 Z " fill="#11242E" transform="translate(476,589)"/>
<path d="M0 0 C0.33 0.99 0.66 1.98 1 3 C-0.32 4.32 -1.64 5.64 -3 7 C-3.99 6.67 -4.98 6.34 -6 6 C-4.02 4.02 -2.04 2.04 0 0 Z " fill="#172630" transform="translate(559,537)"/>
<path d="M0 0 C3.36720387 1.39332574 4.9859524 2.9789286 7 6 C4 6 4 6 1.8125 4.125 C0 2 0 2 0 0 Z " fill="#0B1B22" transform="translate(668,160)"/>
<path d="M0 0 C2.88437779 1.29299694 4.87219421 2.65941363 7 5 C6.67 5.66 6.34 6.32 6 7 C3.95880212 5.38405168 1.95927063 3.7143618 0 2 C0 1.34 0 0.68 0 0 Z " fill="#010D13" transform="translate(169,688)"/>
<path d="M0 0 C0.33 0.66 0.66 1.32 1 2 C-0.98 4.31 -2.96 6.62 -5 9 C-5 4.61031544 -2.87194899 3.23094261 0 0 Z " fill="#044B57" transform="translate(99,168)"/>
<path d="M0 0 C3.82097239 0.53069061 6.06171403 1.49701566 9 4 C4.73012377 4 3.40274199 3.36301527 0 1 C0 0.67 0 0.34 0 0 Z " fill="#0B171F" transform="translate(598,63)"/>
<path d="M0 0 C0 0.66 0 1.32 0 2 C-3.465 3.485 -3.465 3.485 -7 5 C-7.66 4.34 -8.32 3.68 -9 3 C-2.25 0 -2.25 0 0 0 Z " fill="#0A171F" transform="translate(260,46)"/>
</svg>
